# This file uses centimeters as units for non-parametric coordinates.

mtllib chest bottom.mtl
g default
v 0.586718 0.997535 0.748843
v 0.595849 1.321492 0.748843
v 0.595849 1.321492 -0.750628
v 0.586718 0.997535 -0.750628
v 0.633919 1.029043 -0.709104
v 0.633919 1.029043 0.707320
v 0.641200 1.287376 -0.709104
v 0.641200 1.287376 0.707320
v -0.418554 0.139750 1.069424
v 0.581446 0.139750 1.069424
v -0.418554 1.373406 1.069424
v 0.581446 1.373406 1.069424
v -0.418554 1.373406 -1.071208
v 0.581446 1.373406 -1.071208
v -0.418554 0.139750 -1.071208
v 0.581446 0.139750 -1.071208
v -0.418554 1.373406 0.919683
v 0.581446 1.373406 0.919683
v 0.581446 0.139750 0.919683
v -0.418554 0.139750 0.919683
v -0.418554 0.139750 -0.940419
v 0.581446 0.139750 -0.940419
v 0.581446 1.373406 -0.940419
v -0.418554 1.373406 -0.940419
v 0.648492 0.139750 0.919683
v 0.648492 0.139750 1.069424
v 0.648492 1.373406 0.919683
v 0.648492 1.373406 1.069424
v -0.485600 0.139750 0.919683
v -0.485600 1.373406 0.919683
v -0.485600 0.139750 1.069424
v -0.485600 1.373406 1.069424
v 0.648492 0.139750 -0.940419
v 0.648492 1.373406 -0.940419
v 0.648492 0.139750 -1.071208
v 0.648492 1.373406 -1.071208
v -0.485600 0.139750 -1.071208
v -0.485600 0.139750 -0.940419
v -0.485600 1.373406 -0.940419
v -0.485600 1.373406 -1.071208
v -0.392936 1.373406 0.877821
v 0.555828 1.373406 0.877821
v 0.555828 1.373406 -0.898556
v -0.392936 1.373406 -0.898556
v -0.392936 0.723511 0.877821
v 0.555828 0.723511 0.877821
v 0.555828 0.723511 -0.898556
v -0.392936 0.723511 -0.898556
v -0.418554 1.373406 -0.010368
v -0.392936 1.373406 -0.010368
v -0.392936 0.723511 -0.010368
v 0.555828 0.723511 -0.010368
v 0.555828 1.373406 -0.010368
v 0.581446 1.373406 -0.010368
v 0.581446 0.139750 -0.010368
v -0.418554 0.139750 -0.010368
v -0.418554 0.139750 -0.196378
v 0.581446 0.139750 -0.196378
v 0.581446 1.373406 -0.196378
v 0.555828 1.373406 -0.188005
v 0.555828 0.723511 -0.188005
v -0.392936 0.723511 -0.188005
v -0.392936 1.373406 -0.188005
v -0.418554 1.373406 -0.196378
v -0.418554 1.373406 0.175643
v -0.392936 1.373406 0.167270
v -0.392936 0.723511 0.167270
v 0.555828 0.723511 0.167270
v 0.555828 1.373406 0.167270
v 0.581446 1.373406 0.175643
v 0.581446 0.139750 0.175642
v -0.418554 0.139750 0.175642
v -0.418554 0.139750 -0.345186
v 0.581446 0.139750 -0.345186
v 0.581446 1.373406 -0.345186
v 0.555828 1.373406 -0.330116
v 0.555828 0.723511 -0.330116
v -0.392936 0.723511 -0.330116
v -0.392936 1.373406 -0.330116
v -0.418554 1.373406 -0.345186
v -0.418554 1.373406 0.324451
v -0.392936 1.373406 0.309380
v -0.392936 0.723511 0.309380
v 0.555828 0.723511 0.309380
v 0.555828 1.373406 0.309380
v 0.581446 1.373406 0.324451
v 0.581446 0.139750 0.324450
v -0.418554 0.139750 0.324450
v 0.648770 0.139750 -0.196378
v 0.648770 1.373406 -0.196378
v 0.648770 0.139750 -0.345186
v 0.648770 1.373406 -0.345186
v -0.485878 1.373406 -0.345186
v -0.485878 0.139750 -0.345186
v -0.485878 0.139750 -0.196378
v -0.485878 1.373406 -0.196378
v 0.648770 1.373406 0.324451
v 0.648770 0.139750 0.324450
v 0.648770 0.139750 0.175642
v 0.648770 1.373406 0.175643
v -0.485878 0.139750 0.175642
v -0.485878 1.373406 0.175643
v -0.485878 0.139750 0.324450
v -0.485878 1.373406 0.324451
vt 0.038850 0.044607
vt 0.508145 0.044607
vt 0.508145 0.284785
vt 0.038850 0.284785
vt 0.025092 0.094590
vt 0.521903 0.094590
vt 0.521903 0.395780
vt 0.025092 0.395780
vt 0.595617 0.414395
vt 0.595617 0.414395
vt 0.575664 0.098166
vt 0.963086 0.098166
vt 0.675534 0.725829
vt 0.675534 0.725829
vt 0.675568 0.679086
vt 0.675568 0.679086
vt 0.115233 0.472856
vt 0.562948 0.106266
vt 0.007590 0.926231
vt 0.926178 0.414395
vt 0.114324 0.935305
vt 0.791085 0.414395
vt 0.762361 0.414395
vt 0.502916 0.696640
vt 0.972270 0.726045
vt 0.011012 0.910042
vt 0.048315 0.839766
vt 0.502916 0.451629
vt 0.972092 0.970774
vt 0.972092 0.970774
vt 0.012331 0.456899
vt 0.104310 0.456899
vt 0.963086 0.311281
vt 0.575664 0.311281
vt 0.527417 0.451629
vt 0.618740 0.414395
vt 0.989061 0.098166
vt 0.618740 0.414395
vt 0.595617 0.414395
vt 0.989061 0.311281
vt 0.905981 0.414395
vt 0.013805 0.472856
vt 0.007590 0.470135
vt 0.905981 0.414395
vt 0.111017 0.470135
vt 0.956297 0.106266
vt 0.531630 0.695968
vt 0.972448 0.481316
vt 0.013805 0.960017
vt 0.115233 0.960017
vt 0.956297 0.308717
vt 0.013805 0.472856
vt 0.972100 0.959758
vt 0.972100 0.959758
vt 0.972270 0.726045
vt 0.972304 0.679302
vt 0.972440 0.492331
vt 0.972440 0.492331
vt 0.972304 0.679302
vt 0.972270 0.726045
vt 0.675364 0.959542
vt 0.675364 0.959542
vt 0.675704 0.492115
vt 0.675704 0.492115
vt 0.114324 0.452936
vt 0.972236 0.772787
vt 0.675500 0.772571
vt 0.675500 0.772571
vt 0.972236 0.772787
vt 0.048315 0.617544
vt 0.011485 0.926218
vt 0.733637 0.414395
vt 0.814064 0.414395
vt 0.011012 0.458025
vt 0.105629 0.458025
vt 0.791085 0.414395
vt 0.105629 0.910042
vt 0.107650 0.617544
vt 0.107650 0.839766
vt 0.972331 0.641908
vt 0.675595 0.641692
vt 0.675595 0.641692
vt 0.972331 0.641908
vt 0.015717 0.452936
vt 0.015717 0.935305
vt 0.814064 0.414395
vt 0.111572 0.923404
vt 0.096252 0.615664
vt 0.096252 0.837886
vt 0.972209 0.810182
vt 0.675473 0.809966
vt 0.675473 0.809966
vt 0.972209 0.810182
vt 0.011486 0.464499
vt 0.088168 0.464499
vt 0.710657 0.414395
vt 0.088168 0.926218
vt 0.036917 0.837886
vt 0.710657 0.414395
vt 0.111572 0.472975
vt 0.011477 0.472975
vt 0.733637 0.414395
vt 0.011476 0.923404
vt 0.036917 0.615664
vt 0.237685 0.750406
vt 0.475478 0.750406
vt 0.475478 0.988199
vt 0.237685 0.988199
vt 0.025063 0.798584
vt 0.791085 0.414395
vt 0.558319 0.449701
vt 0.558319 0.696285
vt 0.104309 0.933818
vt 0.012331 0.933818
vt 0.104310 0.456899
vt 0.104309 0.933818
vt 0.475878 0.987533
vt 0.239178 0.987533
vt 0.239178 0.750833
vt 0.475878 0.750833
vt 0.011476 0.923404
vt 0.404911 0.696640
vt 0.404911 0.451629
vt 0.011477 0.472975
vt 0.111572 0.472975
vt 0.111572 0.917163
vt 0.114324 0.935305
vt 0.710657 0.414395
vt 0.114324 0.452936
vt 0.015717 0.452936
vt 0.015717 0.935305
vt 0.025063 0.576362
vt 0.011485 0.926218
vt 0.084397 0.576362
vt 0.011486 0.464499
vt 0.088168 0.464499
vt 0.733637 0.414395
vt 0.088168 0.926218
vt 0.011012 0.910042
vt 0.258715 0.698001
vt 0.258715 0.449081
vt 0.283607 0.449081
vt 0.011012 0.458025
vt 0.283607 0.698001
vt 0.105629 0.458025
vt 0.084397 0.798584
vt 0.105629 0.910042
vt 0.814064 0.414395
vt 0.595617 0.414395
vt 0.012331 0.933818
vt 0.012331 0.456899
vt 0.618740 0.414395
vt 0.111017 0.926231
vt 0.562948 0.308717
vt 0.007590 0.926231
vt 0.007590 0.470135
vt 0.926178 0.414395
vt 0.111017 0.470135
vt 0.111017 0.926231
vt 0.926178 0.414395
vt 0.972206 0.814147
vt 0.233822 0.698001
vt 0.233823 0.449081
vt 0.814064 0.414395
vt 0.303520 0.698001
vt 0.303520 0.449081
vt 0.383175 0.449081
vt 0.733637 0.414395
vt 0.383175 0.698001
vt 0.134254 0.698001
vt 0.134255 0.449081
vt 0.972306 0.677099
vt 0.213909 0.449081
vt 0.213909 0.698001
vt 0.710657 0.414395
vt 0.483315 0.451629
vt 0.618740 0.414395
vt 0.972334 0.637942
vt 0.483315 0.696640
vt 0.013805 0.960017
vt 0.578420 0.700964
vt 0.972234 0.768749
vt 0.578420 0.449701
vt 0.972270 0.726045
vt 0.658824 0.449701
vt 0.791085 0.414395
vt 0.658825 0.700964
vt 0.762361 0.414395
vt 0.982670 0.106266
vt 0.115233 0.960017
vt 0.926178 0.414395
vt 0.115233 0.472856
vt 0.905981 0.414395
vt 0.972448 0.481316
vt 0.982670 0.308717
vt 0.905981 0.414395
vt 0.111324 0.936919
vt 0.111324 0.475093
vt 0.002068 0.475093
vt 0.002068 0.936919
vt 0.111324 0.936919
vt 0.111324 0.475093
vt 0.002068 0.475093
vt 0.002068 0.936919
vt 0.549689 0.311281
vt 0.549689 0.098166
vt 0.972206 0.814147
vt 0.071992 0.698828
vt 0.972234 0.774991
vt 0.071992 0.914809
vt 0.972306 0.677099
vt 0.012657 0.921050
vt 0.972334 0.637942
vt 0.012657 0.698828
vt 0.536575 0.308717
vt 0.536575 0.106266
vt 0.531630 0.450957
vt 0.527417 0.696640
vn 0.999603 -0.028174 0.000000
vn 0.999603 -0.028174 0.000000
vn 0.999603 -0.028174 0.000000
vn 0.999603 -0.028174 0.000000
vn 0.555185 -0.831727 0.000000
vn 0.555185 -0.831727 0.000000
vn 0.555185 -0.831727 0.000000
vn 0.555185 -0.831727 0.000000
vn 0.667438 -0.018812 -0.744428
vn 0.667438 -0.018812 -0.744428
vn 0.667438 -0.018812 -0.744428
vn 0.667438 -0.018812 -0.744428
vn 0.601157 0.799131 0.000000
vn 0.601157 0.799131 0.000000
vn 0.601157 0.799131 0.000000
vn 0.601157 0.799131 0.000000
vn 0.667438 -0.018812 0.744428
vn 0.667438 -0.018812 0.744428
vn 0.667438 -0.018812 0.744428
vn 0.667438 -0.018812 0.744428
vn 0.000000 0.000000 1.000000
vn 0.000000 0.000000 1.000000
vn 0.000000 0.000000 1.000000
vn 0.000000 0.000000 1.000000
vn 0.000000 1.000000 0.000000
vn 0.000000 1.000000 0.000000
vn 0.000000 1.000000 0.000000
vn 0.000000 1.000000 0.000000
vn 0.000000 0.000000 -1.000000
vn 0.000000 0.000000 -1.000000
vn 0.000000 0.000000 -1.000000
vn 0.000000 0.000000 -1.000000
vn 0.000000 -1.000000 0.000000
vn 0.000000 -1.000000 0.000000
vn 0.000000 -1.000000 0.000000
vn 0.000000 -1.000000 0.000000
vn 1.000000 0.000000 0.000000
vn 1.000000 0.000000 0.000000
vn 1.000000 0.000000 0.000000
vn 1.000000 0.000000 0.000000
vn -1.000000 0.000000 0.000000
vn -1.000000 0.000000 0.000000
vn -1.000000 0.000000 0.000000
vn -1.000000 0.000000 0.000000
vn 0.000000 1.000000 0.000000
vn 0.000000 1.000000 0.000000
vn 0.000000 1.000000 0.000000
vn 0.000000 1.000000 0.000000
vn 1.000000 0.000000 0.000000
vn 1.000000 0.000000 0.000000
vn 1.000000 0.000000 0.000000
vn 1.000000 0.000000 0.000000
vn 0.000000 -1.000000 0.000000
vn 0.000000 -1.000000 0.000000
vn 0.000000 -1.000000 0.000000
vn 0.000000 -1.000000 0.000000
vn -1.000000 0.000000 0.000000
vn -1.000000 0.000000 0.000000
vn -1.000000 0.000000 0.000000
vn -1.000000 0.000000 0.000000
vn 0.000000 -1.000000 0.000000
vn 0.000000 -1.000000 0.000000
vn 0.000000 -1.000000 0.000000
vn 0.000000 -1.000000 0.000000
vn 1.000000 0.000000 0.000000
vn 1.000000 0.000000 0.000000
vn 1.000000 0.000000 0.000000
vn 1.000000 0.000000 0.000000
vn 0.000000 1.000000 -0.000000
vn 0.000000 1.000000 -0.000000
vn 0.000000 1.000000 0.000000
vn 0.000000 1.000000 0.000000
vn -1.000000 0.000000 0.000000
vn -1.000000 0.000000 0.000000
vn -1.000000 0.000000 0.000000
vn -1.000000 0.000000 0.000000
vn 0.000000 -1.000000 0.000000
vn 0.000000 -1.000000 0.000000
vn 0.000000 0.000000 -1.000000
vn 0.000000 0.000000 -1.000000
vn 0.000000 0.000000 -1.000000
vn 0.000000 0.000000 -1.000000
vn 0.000000 1.000000 0.000000
vn 0.000000 1.000000 0.000000
vn 0.000000 0.000000 1.000000
vn 0.000000 0.000000 1.000000
vn 0.000000 0.000000 -1.000000
vn 0.000000 0.000000 -1.000000
vn 0.000000 0.000000 -1.000000
vn 0.000000 0.000000 -1.000000
vn 0.000000 -1.000000 0.000000
vn 0.000000 -1.000000 0.000000
vn 0.000000 0.000000 1.000000
vn 0.000000 0.000000 1.000000
vn 0.000000 1.000000 0.000000
vn 0.000000 1.000000 0.000000
vn 0.000000 0.000000 1.000000
vn 0.000000 0.000000 1.000000
vn 0.000000 0.000000 1.000000
vn 0.000000 0.000000 1.000000
vn 0.000000 -1.000000 0.000000
vn 0.000000 -1.000000 0.000000
vn 0.000000 0.000000 -1.000000
vn 0.000000 0.000000 -1.000000
vn 0.000000 1.000000 0.000000
vn 0.000000 1.000000 0.000000
vn 0.000000 -1.000000 0.000000
vn 0.000000 -1.000000 0.000000
vn 0.000000 0.000000 1.000000
vn 0.000000 0.000000 1.000000
vn 0.000000 0.000000 1.000000
vn 0.000000 0.000000 1.000000
vn 0.000000 1.000000 0.000000
vn 0.000000 1.000000 0.000000
vn 0.000000 0.000000 -1.000000
vn 0.000000 0.000000 -1.000000
vn 0.000000 1.000000 0.000001
vn 0.000000 1.000000 0.000001
vn 0.000000 1.000000 0.000000
vn 0.000000 1.000000 0.000000
vn 0.000000 1.000000 0.000000
vn 0.000000 1.000000 0.000000
vn 0.000000 1.000000 -0.000001
vn 0.000000 1.000000 -0.000001
vn 0.000000 1.000000 0.000000
vn 0.000000 1.000000 0.000000
vn 0.000000 1.000000 0.000000
vn 0.000000 1.000000 0.000000
vn 0.000000 0.000000 -1.000000
vn 0.000000 0.000000 -1.000000
vn 0.000000 0.000000 -1.000000
vn 0.000000 0.000000 -1.000000
vn -1.000000 0.000000 0.000000
vn -1.000000 0.000000 0.000000
vn -1.000000 0.000000 0.000000
vn -1.000000 0.000000 0.000000
vn 0.000000 0.000000 1.000000
vn 0.000000 0.000000 1.000000
vn 0.000000 0.000000 1.000000
vn 0.000000 0.000000 1.000000
vn 1.000000 0.000000 0.000000
vn 1.000000 0.000000 0.000000
vn 1.000000 0.000000 0.000000
vn 1.000000 0.000000 0.000000
vn 0.000000 1.000000 0.000000
vn 0.000000 1.000000 0.000000
vn 1.000000 0.000000 0.000000
vn 1.000000 0.000000 0.000000
vn 0.000000 1.000000 0.000000
vn 0.000000 1.000000 0.000000
vn -1.000000 0.000000 0.000000
vn -1.000000 0.000000 0.000000
vn 0.000000 1.000000 0.000000
vn 0.000000 1.000000 0.000000
vn 1.000000 0.000000 0.000000
vn 1.000000 0.000000 0.000000
vn 0.000000 -1.000000 0.000000
vn 0.000000 -1.000000 0.000000
vn -1.000000 0.000000 0.000000
vn -1.000000 0.000000 0.000000
vn 0.000000 -1.000000 0.000000
vn 0.000000 -1.000000 0.000000
vn 1.000000 0.000000 0.000000
vn 1.000000 0.000000 0.000000
vn 1.000000 0.000000 0.000000
vn 1.000000 0.000000 0.000000
vn 0.000000 1.000000 0.000000
vn 0.000000 1.000000 0.000000
vn -1.000000 0.000000 0.000000
vn -1.000000 0.000000 0.000000
vn 0.000000 1.000000 0.000000
vn 0.000000 1.000000 0.000000
vn 1.000000 0.000000 0.000000
vn 1.000000 0.000000 0.000000
vn 0.000000 1.000000 0.000000
vn 0.000000 1.000000 0.000000
vn -1.000000 0.000000 0.000000
vn -1.000000 0.000000 0.000000
vn -1.000000 0.000000 0.000000
vn -1.000000 0.000000 0.000000
vn 0.000000 1.000000 0.000000
vn 0.000000 1.000000 0.000000
vn 1.000000 0.000000 0.000000
vn 1.000000 0.000000 0.000000
vn 0.000000 1.000000 0.000000
vn 0.000000 1.000000 0.000000
vn -1.000000 0.000000 0.000000
vn -1.000000 0.000000 0.000000
vn 0.000000 1.000000 0.000000
vn 0.000000 1.000000 0.000000
vn 1.000000 0.000000 0.000000
vn 1.000000 0.000000 0.000000
vn 1.000000 0.000000 0.000000
vn 1.000000 0.000000 0.000000
vn 0.000000 -1.000000 0.000000
vn 0.000000 -1.000000 0.000000
vn -1.000000 0.000000 0.000000
vn -1.000000 0.000000 0.000000
vn -1.000000 0.000000 0.000000
vn -1.000000 0.000000 0.000000
vn 1.000000 0.000000 0.000000
vn 1.000000 0.000000 0.000000
vn 1.000000 0.000000 0.000000
vn 1.000000 0.000000 0.000000
vn -1.000000 0.000000 0.000000
vn -1.000000 0.000000 0.000000
vn 0.000000 1.000000 0.000000
vn 0.000000 1.000000 0.000000
vn 1.000000 0.000000 0.000000
vn 1.000000 0.000000 0.000000
vn -1.000000 0.000000 0.000000
vn -1.000000 0.000000 0.000000
vn -1.000000 0.000000 0.000000
vn -1.000000 0.000000 0.000000
vn 1.000000 0.000000 0.000000
vn 1.000000 0.000000 0.000000
vn 0.000000 1.000000 0.000000
vn 0.000000 1.000000 0.000000
vn -1.000000 0.000000 0.000000
vn -1.000000 0.000000 0.000000
vn 1.000000 0.000000 0.000000
vn 1.000000 0.000000 0.000000
vn 1.000000 0.000000 0.000000
vn 1.000000 0.000000 0.000000
vn -1.000000 0.000000 0.000000
vn -1.000000 0.000000 0.000000
vn -1.000000 0.000000 0.000000
vn -1.000000 0.000000 0.000000
vn 0.000000 0.000000 1.000000
vn 0.000000 0.000000 1.000000
vn 0.000000 0.000000 1.000000
vn 0.000000 0.000000 1.000000
vn 0.000000 -1.000000 0.000000
vn 0.000000 -1.000000 0.000000
vn 0.000000 0.000000 -1.000000
vn 0.000000 0.000000 -1.000000
vn 0.000000 0.000000 -1.000000
vn 0.000000 0.000000 -1.000000
vn 0.000000 1.000000 0.000000
vn 0.000000 1.000000 0.000000
vn 0.000000 0.000000 -1.000000
vn 0.000000 0.000000 -1.000000
vn 0.000000 0.000000 -1.000000
vn 0.000000 0.000000 -1.000000
vn 0.000000 -1.000000 0.000000
vn 0.000000 -1.000000 0.000000
vn 0.000000 0.000000 1.000000
vn 0.000000 0.000000 1.000000
vn 0.000000 0.000000 1.000000
vn 0.000000 0.000000 1.000000
vn 0.000000 1.000000 0.000000
vn 0.000000 1.000000 0.000000
vn 0.000000 -0.000000 1.000000
vn 0.000000 -0.000000 1.000000
vn 0.000000 -0.000000 1.000000
vn 0.000000 -0.000000 1.000000
vn 0.000000 -1.000000 0.000000
vn 0.000000 -1.000000 0.000000
vn 0.000000 0.000000 -1.000000
vn 0.000000 0.000000 -1.000000
vn 0.000000 0.000000 -1.000000
vn 0.000000 0.000000 -1.000000
vn 0.000000 1.000000 0.000000
vn 0.000000 1.000000 0.000000
vn 0.000000 0.000000 -1.000000
vn 0.000000 0.000000 -1.000000
vn 0.000000 0.000000 -1.000000
vn 0.000000 0.000000 -1.000000
vn 0.000000 -1.000000 0.000000
vn 0.000000 -1.000000 0.000000
vn 0.000000 -0.000000 1.000000
vn 0.000000 -0.000000 1.000000
vn 0.000000 -0.000000 1.000000
vn 0.000000 -0.000000 1.000000
vn 0.000000 1.000000 0.000000
vn 0.000000 1.000000 0.000000
s off
g pasted__pasted__pCube2
usemtl initialShadingGroup
f 6/1/1 5/2/2 7/3/3 8/4/4
f 1/5/5 4/6/6 5/2/7 6/1/8
f 4/6/9 3/7/10 7/3/11 5/2/12
f 3/7/13 2/8/14 8/4/15 7/3/16
f 2/8/17 1/5/18 6/1/19 8/4/20
s 1
f 9/105/21 10/106/22 12/107/23 11/108/24
s 2
f 51/13/25 52/14/26 61/15/27 62/16/28
s 3
f 13/117/29 14/118/30 16/119/31 15/120/32
s 4
f 57/186/33 58/22/34 55/23/35 56/188/36
s 5
f 54/140/37 55/141/38 58/142/39 59/144/40
s 6
f 64/24/41 57/28/42 56/35/43 49/218/44
s 7
f 11/11/45 12/12/46 18/33/47 17/34/48
s off
f 26/31/49 25/32/50 27/113/51 28/114/52
s 4
f 20/177/53 19/36/54 10/10/55 9/9/56
s off
f 30/197/57 29/198/58 31/199/59 32/200/60
s 4
f 15/20/61 16/160/62 22/41/63 21/193/64
s off
f 34/19/65 33/43/66 35/45/67 36/153/68
s 7
f 24/18/69 23/46/70 14/51/71 13/154/72
s off
f 37/17/73 38/42/74 39/49/75 40/50/76
s 4
f 10/10/55 19/36/54 25/152/77 26/149/78
s off
f 19/115/79 18/116/80 27/113/81 25/32/82
s 7
f 18/33/47 12/12/46 28/37/83 27/40/84
s 1
f 12/150/23 10/151/22 26/31/85 28/114/86
s off
f 17/201/87 20/202/88 29/198/89 30/197/90
s 4
f 20/177/53 9/9/56 31/39/91 29/38/92
s 1
f 9/203/21 11/204/24 32/200/93 31/199/94
s 7
f 11/11/45 17/34/48 30/205/95 32/206/96
s off
f 23/155/97 22/156/98 33/43/99 34/19/100
s 4
f 22/41/63 16/160/62 35/157/101 33/44/102
s 3
f 16/158/31 14/159/30 36/153/103 35/45/104
s 7
f 14/51/71 23/46/70 34/189/105 36/195/106
s 4
f 15/20/61 21/193/64 38/196/107 37/191/108
s off
f 21/52/109 24/180/110 39/49/111 38/42/112
s 7
f 24/18/69 13/154/72 40/215/113 39/216/114
s 3
f 13/190/29 15/192/32 37/17/115 40/50/116
s 7
f 17/30/48 18/29/47 42/53/117 41/54/118
f 53/55/119 54/25/120 59/172/121 60/56/122
f 23/48/70 24/194/69 44/57/123 43/58/124
f 63/59/125 64/211/126 49/184/127 50/60/128
s off
f 41/54/129 42/53/130 46/61/131 45/62/132
s 13
f 52/14/133 53/55/134 60/56/135 61/15/136
s off
f 43/58/137 44/57/138 48/63/139 47/64/140
s 14
f 62/16/141 63/59/142 50/60/143 51/13/144
s 7
f 50/60/128 49/184/127 65/182/145 66/66/146
s 14
f 51/13/144 50/60/143 66/66/147 67/67/148
s 2
f 67/67/149 68/68/150 52/14/26 51/13/25
s 13
f 68/68/151 69/69/152 53/55/134 52/14/133
s 7
f 69/69/153 70/209/154 54/25/120 53/55/119
s 5
f 70/162/155 71/163/156 55/141/38 54/140/37
s 4
f 56/188/36 55/23/35 71/168/157 72/72/158
s 6
f 49/47/44 56/217/43 72/111/159 65/112/160
s 4
f 73/73/161 74/164/162 58/22/34 57/186/33
s off
f 90/26/163 89/74/164 91/75/165 92/77/166
s 7
f 60/56/122 59/172/121 75/213/167 76/80/168
s 13
f 61/15/136 60/56/135 76/80/169 77/81/170
s 2
f 62/16/28 61/15/27 77/81/171 78/82/172
s 14
f 78/82/173 79/83/174 63/59/142 62/16/141
s 7
f 79/83/175 80/178/176 64/211/126 63/59/125
s off
f 93/21/177 94/65/178 95/84/179 96/85/180
s 7
f 66/66/146 65/182/145 81/207/181 82/90/182
s 14
f 67/67/148 66/66/147 82/90/183 83/91/184
s 2
f 83/91/185 84/92/186 68/68/150 67/67/149
s 13
f 84/92/187 85/93/188 69/69/152 68/68/151
s 7
f 85/93/189 86/161/190 70/209/154 69/69/153
s off
f 97/71/191 98/94/192 99/95/193 100/97/194
s 4
f 72/72/158 71/168/157 87/99/195 88/175/196
s off
f 102/87/197 101/100/198 103/101/199 104/103/200
s 4
f 21/193/64 22/41/63 74/164/162 73/73/161
s off
f 75/165/201 74/166/202 22/167/203 23/169/204
s 7
f 76/80/168 75/213/167 23/48/70 43/58/124
s 13
f 77/81/170 76/80/169 43/58/205 47/64/206
s 2
f 78/82/172 77/81/171 47/64/207 48/63/208
s 14
f 44/57/209 79/83/174 78/82/173 48/63/210
s 7
f 24/194/69 80/178/176 79/83/175 44/57/123
s off
f 24/122/211 21/123/212 73/176/213 80/179/214
s 7
f 82/90/182 81/207/181 17/30/48 41/54/118
s 14
f 83/91/184 82/90/183 41/54/215 45/62/216
s 2
f 45/62/217 46/61/218 84/92/186 83/91/185
s 13
f 42/53/219 85/93/188 84/92/187 46/61/220
s 7
f 18/29/47 86/161/190 85/93/189 42/53/117
s off
f 18/170/221 19/171/222 87/173/223 86/174/224
s 4
f 88/175/196 87/99/195 19/36/54 20/177/53
s off
f 81/181/225 88/183/226 20/185/227 17/187/228
f 59/139/229 58/143/230 89/74/231 90/26/232
s 4
f 58/22/34 74/164/162 91/148/233 89/76/234
s off
f 74/145/235 75/147/236 92/77/237 91/75/238
s 7
f 75/27/167 59/70/121 90/78/239 92/79/240
s off
f 80/127/241 73/129/242 94/65/243 93/21/244
s 4
f 73/73/161 57/186/33 95/110/245 94/86/246
s off
f 57/130/247 64/131/248 96/85/249 95/84/250
s 7
f 64/88/126 80/89/176 93/98/251 96/104/252
s off
f 86/133/253 87/135/254 98/94/255 97/71/256
s 4
f 87/99/195 71/168/157 99/137/257 98/96/258
s off
f 71/136/259 70/138/260 100/97/261 99/95/262
s 7
f 70/109/154 86/132/190 97/134/263 100/146/264
s off
f 65/126/265 72/125/266 101/100/267 102/87/268
s 4
f 72/72/158 88/175/196 103/128/269 101/102/270
s off
f 88/124/271 81/121/272 104/103/273 103/101/274
s 7
f 81/208/181 65/210/145 102/212/275 104/214/276
