# This file uses centimeters as units for non-parametric coordinates.

mtllib hekjehalf.mtl
g default
v -12.792905 0.206126 34.537487
v -12.792905 0.896858 34.537487
v -12.792905 1.587590 34.537487
v -12.792905 2.278323 34.537487
v -12.792905 2.969055 34.537487
v -12.792905 3.659787 34.537487
v -12.792905 4.350520 34.537487
v -12.792905 5.041252 34.537487
v -12.792905 5.731985 34.537487
v -12.792905 6.422717 34.537487
v -12.792905 7.113449 34.537487
v -12.792905 0.206126 33.846752
v -12.792905 0.896858 33.846752
v -12.792905 1.587590 33.846752
v -12.792905 2.278323 33.846752
v -12.792905 2.969055 33.846752
v -12.792905 3.659787 33.846752
v -12.792905 4.350520 33.846752
v -12.792905 5.041252 33.846752
v -12.792905 5.731985 33.846752
v -12.792905 6.422717 33.846752
v -12.792905 7.113449 33.846752
v -12.792905 0.206126 33.156021
v -12.792905 0.896858 33.156021
v -12.792905 1.587590 33.156021
v -12.792905 2.278323 33.156021
v -12.792905 2.969055 33.156021
v -12.792905 3.659787 33.156021
v -12.792905 4.350520 33.156021
v -12.792905 5.041252 33.156021
v -12.792905 5.731985 33.156021
v -12.792905 6.422717 33.156021
v -12.792905 7.113449 33.156021
v -12.792905 0.206126 32.465290
v -12.792905 0.896858 32.465290
v -12.792905 1.587590 32.465290
v -12.792905 2.278323 32.465290
v -12.792905 2.969055 32.465290
v -12.792905 3.659787 32.465290
v -12.792905 4.350520 32.465290
v -12.792905 5.041252 32.465290
v -12.792905 5.731985 32.465290
v -12.792905 6.422717 32.465290
v -12.792905 7.113449 32.465290
v -12.792905 0.206126 31.774557
v -12.792905 0.896858 31.774557
v -12.792905 1.587590 31.774557
v -12.792905 2.278323 31.774557
v -12.792905 2.969055 31.774557
v -12.792905 3.659787 31.774557
v -12.792905 4.350520 31.774557
v -12.792905 5.041252 31.774557
v -12.792905 5.731985 31.774557
v -12.792905 6.422717 31.774557
v -12.792905 7.113449 31.774557
v -12.792905 0.206126 31.083824
v -12.792905 0.896858 31.083824
v -12.792905 1.587590 31.083824
v -12.792905 2.278323 31.083824
v -12.792905 2.969055 31.083824
v -12.792905 3.659787 31.083824
v -12.792905 4.350520 31.083824
v -12.792905 5.041252 31.083824
v -12.792905 5.731985 31.083824
v -12.792905 6.422717 31.083824
v -12.792905 7.113449 31.083824
v -12.792905 0.206126 30.393091
v -12.792905 0.896858 30.393091
v -12.792905 1.587590 30.393091
v -12.792905 2.278323 30.393091
v -12.792905 2.969055 30.393091
v -12.792905 3.659787 30.393091
v -12.792905 4.350520 30.393091
v -12.792905 5.041252 30.393091
v -12.792905 5.731985 30.393091
v -12.792905 6.422717 30.393091
v -12.792905 7.113449 30.393091
v -12.792905 0.206126 29.702360
v -12.792905 0.896858 29.702360
v -12.792905 1.587590 29.702360
v -12.792905 2.278323 29.702360
v -12.792905 2.969055 29.702360
v -12.792905 3.659787 29.702360
v -12.792905 4.350520 29.702360
v -12.792905 5.041252 29.702360
v -12.792905 5.731985 29.702360
v -12.792905 6.422717 29.702360
v -12.792905 7.113449 29.702360
v -12.792905 0.206126 29.011627
v -12.792905 0.896858 29.011627
v -12.792905 1.587590 29.011627
v -12.792905 2.278323 29.011627
v -12.792905 2.969055 29.011627
v -12.792905 3.659787 29.011627
v -12.792905 4.350520 29.011627
v -12.792905 5.041252 29.011627
v -12.792905 5.731985 29.011627
v -12.792905 6.422717 29.011627
v -12.792905 7.113449 29.011627
v -12.792905 0.206126 28.320894
v -12.792905 0.896858 28.320894
v -12.792905 1.587590 28.320894
v -12.792905 2.278323 28.320894
v -12.792905 2.969055 28.320894
v -12.792905 3.659787 28.320894
v -12.792905 4.350520 28.320894
v -12.792905 5.041252 28.320894
v -12.792905 5.731985 28.320894
v -12.792905 6.422717 28.320894
v -12.792905 7.113449 28.320894
v -12.792905 0.206126 27.630163
v -12.792905 0.896858 27.630163
v -12.792905 1.587590 27.630163
v -12.792905 2.278323 27.630163
v -12.792905 2.969055 27.630163
v -12.792905 3.659787 27.630163
v -12.792905 4.350520 27.630163
v -12.792905 5.041252 27.630163
v -12.792905 5.731985 27.630163
v -12.792905 6.422717 27.630163
v -12.792905 7.113449 27.630163
v -12.632965 -0.029215 34.562069
v -12.656160 -0.029215 34.516544
v -12.692287 -0.029215 34.480419
v -12.737812 -0.029215 34.457222
v -12.788275 -0.029215 34.449230
v -12.838739 -0.029215 34.457222
v -12.884262 -0.029215 34.480419
v -12.920391 -0.029215 34.516544
v -12.943586 -0.029215 34.562069
v -12.951578 -0.029215 34.612534
v -12.943586 -0.029215 34.662994
v -12.920391 -0.029215 34.708519
v -12.884262 -0.029215 34.744648
v -12.838739 -0.029215 34.767845
v -12.788275 -0.029215 34.775837
v -12.737812 -0.029215 34.767845
v -12.692287 -0.029215 34.744648
v -12.656160 -0.029215 34.708519
v -12.632965 -0.029215 34.662994
v -12.624971 -0.029215 34.612534
v -12.632965 7.219890 34.562069
v -12.656160 7.219890 34.516544
v -12.692287 7.219890 34.480419
v -12.737812 7.219890 34.457222
v -12.788275 7.219890 34.449230
v -12.838739 7.219890 34.457222
v -12.884262 7.219890 34.480419
v -12.920391 7.219890 34.516544
v -12.943586 7.219890 34.562069
v -12.951578 7.219890 34.612534
v -12.943586 7.219890 34.662994
v -12.920391 7.219890 34.708519
v -12.884262 7.219890 34.744648
v -12.838739 7.219890 34.767845
v -12.788275 7.219890 34.775837
v -12.737812 7.219890 34.767845
v -12.692287 7.219890 34.744648
v -12.656160 7.219890 34.708519
v -12.632965 7.219890 34.662994
v -12.624971 7.219890 34.612534
v -12.788275 -0.029215 34.612534
v -12.788275 7.219890 34.612534
vt 0.000000 0.000000
vt 0.087011 0.000000
vt 0.087011 0.087011
vt 0.000000 0.087011
vt 0.174022 0.000000
vt 0.174022 0.087011
vt 0.261033 0.000000
vt 0.261033 0.087011
vt 0.348044 0.000000
vt 0.348044 0.087011
vt 0.435055 0.000000
vt 0.435055 0.087011
vt 0.522066 0.000000
vt 0.522066 0.087011
vt 0.609077 0.000000
vt 0.609077 0.087011
vt 0.696088 0.000000
vt 0.696088 0.087011
vt 0.783100 0.000000
vt 0.783100 0.087011
vt 0.870111 0.000000
vt 0.870111 0.087011
vt 0.087011 0.174022
vt 0.000000 0.174022
vt 0.174022 0.174022
vt 0.261033 0.174022
vt 0.348044 0.174022
vt 0.435055 0.174022
vt 0.522066 0.174022
vt 0.609077 0.174022
vt 0.696088 0.174022
vt 0.783100 0.174022
vt 0.870111 0.174022
vt 0.087011 0.261033
vt 0.000000 0.261033
vt 0.174022 0.261033
vt 0.261033 0.261033
vt 0.348044 0.261033
vt 0.435055 0.261033
vt 0.522066 0.261033
vt 0.609077 0.261033
vt 0.696088 0.261033
vt 0.783100 0.261033
vt 0.870111 0.261033
vt 0.087011 0.348044
vt 0.000000 0.348044
vt 0.174022 0.348044
vt 0.261033 0.348044
vt 0.348044 0.348044
vt 0.435055 0.348044
vt 0.522066 0.348044
vt 0.609077 0.348044
vt 0.696088 0.348044
vt 0.783100 0.348044
vt 0.870111 0.348044
vt 0.087011 0.435055
vt 0.000000 0.435055
vt 0.174022 0.435055
vt 0.261033 0.435055
vt 0.348044 0.435055
vt 0.435055 0.435055
vt 0.522066 0.435055
vt 0.609077 0.435055
vt 0.696088 0.435055
vt 0.783100 0.435055
vt 0.870111 0.435055
vt 0.087011 0.522066
vt 0.000000 0.522066
vt 0.174022 0.522066
vt 0.261033 0.522066
vt 0.348044 0.522066
vt 0.435055 0.522066
vt 0.522066 0.522066
vt 0.609077 0.522066
vt 0.696088 0.522066
vt 0.783100 0.522066
vt 0.870111 0.522066
vt 0.087011 0.609077
vt 0.000000 0.609077
vt 0.174022 0.609077
vt 0.261033 0.609077
vt 0.348044 0.609077
vt 0.435055 0.609077
vt 0.522066 0.609077
vt 0.609077 0.609077
vt 0.696088 0.609077
vt 0.783100 0.609077
vt 0.870111 0.609077
vt 0.087011 0.696088
vt 0.000000 0.696088
vt 0.174022 0.696088
vt 0.261033 0.696088
vt 0.348044 0.696088
vt 0.435055 0.696088
vt 0.522066 0.696088
vt 0.609077 0.696088
vt 0.696088 0.696088
vt 0.783100 0.696088
vt 0.870111 0.696088
vt 0.087011 0.783100
vt 0.000000 0.783100
vt 0.174022 0.783100
vt 0.261033 0.783100
vt 0.348044 0.783100
vt 0.435055 0.783100
vt 0.522066 0.783100
vt 0.609077 0.783100
vt 0.696088 0.783100
vt 0.783100 0.783100
vt 0.870111 0.783100
vt 0.087011 0.870111
vt 0.000000 0.870111
vt 0.174022 0.870111
vt 0.261033 0.870111
vt 0.348044 0.870111
vt 0.435055 0.870111
vt 0.522066 0.870111
vt 0.609077 0.870111
vt 0.696088 0.870111
vt 0.783100 0.870111
vt 0.870111 0.870111
vt 0.974256 0.000000
vt 0.980692 0.000000
vt 0.980692 0.913165
vt 0.974256 0.913165
vt 0.987128 0.000000
vt 0.987128 0.913165
vt 0.993564 0.000000
vt 0.993564 0.913165
vt 1.000000 0.000000
vt 0.871278 0.913165
vt 0.877714 0.000000
vt 0.877714 0.913165
vt 0.884150 0.000000
vt 0.884150 0.913165
vt 0.890586 0.000000
vt 0.890586 0.913165
vt 0.897023 0.000000
vt 0.897023 0.913165
vt 0.903459 0.000000
vt 0.903459 0.913165
vt 0.909894 0.000000
vt 0.909894 0.913165
vt 0.916331 0.000000
vt 0.916331 0.913165
vt 0.922767 0.000000
vt 0.922767 0.913165
vt 0.929203 0.000000
vt 0.929203 0.913165
vt 0.935639 0.000000
vt 0.935639 0.913165
vt 0.942075 0.000000
vt 0.942075 0.913165
vt 0.948511 0.000000
vt 0.948511 0.913165
vt 0.954948 0.000000
vt 0.954948 0.913165
vt 0.961384 0.000000
vt 0.961384 0.913165
vt 0.967820 0.000000
vt 0.967820 0.913165
vt 0.086138 0.890681
vt 0.085131 0.884324
vt 0.037214 0.878589
vt 0.040136 0.884324
vt 0.020571 0.889858
vt 0.032663 0.874038
vt 0.026928 0.871116
vt 0.020571 0.870109
vt 0.014214 0.871116
vt 0.008480 0.874038
vt 0.003929 0.878589
vt 0.001007 0.884324
vt 0.000000 0.890681
vt 0.001007 0.897038
vt 0.003929 0.902772
vt 0.008480 0.907323
vt 0.014214 0.910245
vt 0.020571 0.911252
vt 0.026928 0.910245
vt 0.032663 0.907323
vt 0.037214 0.902772
vt 0.040136 0.897038
vt 0.041142 0.890681
vt 0.085131 0.897038
vt 0.082209 0.902772
vt 0.065567 0.889858
vt 0.077658 0.907323
vt 0.071924 0.910245
vt 0.065567 0.911252
vt 0.059210 0.910245
vt 0.053475 0.907323
vt 0.048924 0.902772
vt 0.046002 0.897038
vt 0.044996 0.890681
vt 0.046002 0.884324
vt 0.048924 0.878589
vt 0.053475 0.874038
vt 0.059210 0.871116
vt 0.065567 0.870109
vt 0.071924 0.871116
vt 0.077658 0.874038
vt 0.082209 0.878589
vt 0.871278 0.000000
vt 1.000000 0.913165
vn -1.000000 0.000000 0.000000
vn -1.000000 0.000000 0.000000
vn -1.000000 0.000000 0.000000
vn -1.000000 0.000000 0.000000
vn -1.000000 0.000000 0.000000
vn -1.000000 0.000000 0.000000
vn -1.000000 0.000000 0.000000
vn -1.000000 0.000000 0.000000
vn -1.000000 0.000000 0.000000
vn -1.000000 0.000000 0.000000
vn -1.000000 0.000000 0.000000
vn -1.000000 0.000000 0.000000
vn -1.000000 0.000000 0.000000
vn -1.000000 0.000000 0.000000
vn -1.000000 0.000000 0.000000
vn -1.000000 0.000000 0.000000
vn -1.000000 0.000000 0.000000
vn -1.000000 0.000000 0.000000
vn -1.000000 0.000000 0.000000
vn -1.000000 0.000000 0.000000
vn -1.000000 0.000000 0.000000
vn -1.000000 0.000000 0.000000
vn -1.000000 0.000000 0.000000
vn -1.000000 0.000000 0.000000
vn -1.000000 0.000000 0.000000
vn -1.000000 0.000000 0.000000
vn -1.000000 0.000000 0.000000
vn -1.000000 0.000000 0.000000
vn -1.000000 0.000000 0.000000
vn -1.000000 0.000000 0.000000
vn -1.000000 0.000000 0.000000
vn -1.000000 0.000000 0.000000
vn -1.000000 0.000000 0.000000
vn -1.000000 0.000000 0.000000
vn -1.000000 0.000000 0.000000
vn -1.000000 0.000000 0.000000
vn -1.000000 0.000000 0.000000
vn -1.000000 0.000000 0.000000
vn -1.000000 0.000000 0.000000
vn -1.000000 0.000000 0.000000
vn -1.000000 0.000000 0.000000
vn -1.000000 0.000000 0.000000
vn -1.000000 0.000000 0.000000
vn -1.000000 0.000000 0.000000
vn -1.000000 0.000000 0.000000
vn -1.000000 0.000000 0.000000
vn -1.000000 0.000000 0.000000
vn -1.000000 0.000000 0.000000
vn -1.000000 0.000000 0.000000
vn -1.000000 0.000000 0.000000
vn -1.000000 0.000000 0.000000
vn -1.000000 0.000000 0.000000
vn -1.000000 0.000000 0.000000
vn -1.000000 0.000000 0.000000
vn -1.000000 0.000000 0.000000
vn -1.000000 0.000000 0.000000
vn -1.000000 0.000000 0.000000
vn -1.000000 0.000000 0.000000
vn -1.000000 0.000000 0.000000
vn -1.000000 0.000000 0.000000
vn -1.000000 0.000000 0.000000
vn -1.000000 0.000000 0.000000
vn -1.000000 0.000000 0.000000
vn -1.000000 0.000000 0.000000
vn -1.000000 0.000000 0.000000
vn -1.000000 0.000000 0.000000
vn -1.000000 0.000000 0.000000
vn -1.000000 0.000000 0.000000
vn -1.000000 0.000000 0.000000
vn -1.000000 0.000000 0.000000
vn -1.000000 0.000000 0.000000
vn -1.000000 0.000000 0.000000
vn -1.000000 0.000000 0.000000
vn -1.000000 0.000000 0.000000
vn -1.000000 0.000000 0.000000
vn -1.000000 0.000000 0.000000
vn -1.000000 0.000000 0.000000
vn -1.000000 0.000000 0.000000
vn -1.000000 0.000000 0.000000
vn -1.000000 0.000000 0.000000
vn -1.000000 0.000000 0.000000
vn -1.000000 0.000000 0.000000
vn -1.000000 0.000000 0.000000
vn -1.000000 0.000000 0.000000
vn -1.000000 0.000000 0.000000
vn -1.000000 0.000000 0.000000
vn -1.000000 0.000000 0.000000
vn -1.000000 0.000000 0.000000
vn -1.000000 0.000000 0.000000
vn -1.000000 0.000000 0.000000
vn -1.000000 0.000000 0.000000
vn -1.000000 0.000000 0.000000
vn -1.000000 0.000000 0.000000
vn -1.000000 0.000000 0.000000
vn -1.000000 0.000000 0.000000
vn -1.000000 0.000000 0.000000
vn -1.000000 0.000000 0.000000
vn -1.000000 0.000000 0.000000
vn -1.000000 0.000000 0.000000
vn -1.000000 0.000000 0.000000
vn -1.000000 0.000000 0.000000
vn -1.000000 0.000000 0.000000
vn -1.000000 0.000000 0.000000
vn -1.000000 0.000000 0.000000
vn -1.000000 0.000000 0.000000
vn -1.000000 0.000000 0.000000
vn -1.000000 0.000000 0.000000
vn -1.000000 0.000000 0.000000
vn -1.000000 0.000000 0.000000
vn -1.000000 0.000000 0.000000
vn -1.000000 0.000000 0.000000
vn -1.000000 0.000000 0.000000
vn -1.000000 0.000000 0.000000
vn -1.000000 0.000000 0.000000
vn -1.000000 0.000000 0.000000
vn -1.000000 0.000000 0.000000
vn -1.000000 0.000000 0.000000
vn -1.000000 0.000000 0.000000
vn -1.000000 0.000000 0.000000
vn -1.000000 0.000000 0.000000
vn -1.000000 0.000000 0.000000
vn 0.951057 0.000000 -0.309014
vn 0.809016 0.000000 -0.587787
vn 0.809016 0.000000 -0.587787
vn 0.951057 0.000000 -0.309014
vn 0.587769 0.000000 -0.809029
vn 0.587769 0.000000 -0.809029
vn 0.309021 0.000000 -0.951055
vn 0.309021 0.000000 -0.951055
vn -0.000000 0.000000 -1.000000
vn -0.000000 0.000000 -1.000000
vn -0.309021 0.000000 -0.951055
vn -0.309021 0.000000 -0.951055
vn -0.587769 0.000000 -0.809029
vn -0.587769 0.000000 -0.809029
vn -0.809007 0.000000 -0.587799
vn -0.809007 0.000000 -0.587799
vn -0.951063 0.000000 -0.308997
vn -0.951063 0.000000 -0.308997
vn -1.000000 0.000000 -0.000000
vn -1.000000 0.000000 -0.000000
vn -0.951057 0.000000 0.309016
vn -0.951057 0.000000 0.309016
vn -0.809021 0.000000 0.587779
vn -0.809021 0.000000 0.587779
vn -0.587810 0.000000 0.808999
vn -0.587810 0.000000 0.808999
vn -0.309021 0.000000 0.951055
vn -0.309021 0.000000 0.951055
vn 0.000000 0.000000 1.000000
vn 0.000000 0.000000 1.000000
vn 0.309021 0.000000 0.951055
vn 0.309021 0.000000 0.951055
vn 0.587810 0.000000 0.808999
vn 0.587810 0.000000 0.808999
vn 0.809030 0.000000 0.587767
vn 0.809030 0.000000 0.587767
vn 0.951051 0.000000 0.309033
vn 0.951051 0.000000 0.309033
vn 1.000000 0.000000 -0.000000
vn 1.000000 0.000000 -0.000000
vn 0.000000 -1.000000 0.000000
vn 0.000000 -1.000000 -0.000000
vn 0.000000 -1.000000 -0.000000
vn 0.000000 -1.000000 0.000000
vn 0.000000 -1.000000 0.000000
vn 0.000000 -1.000000 0.000000
vn 0.000000 -1.000000 0.000000
vn 0.000000 -1.000000 -0.000000
vn 0.000000 -1.000000 -0.000000
vn 0.000000 -1.000000 0.000000
vn 0.000000 -1.000000 0.000000
vn 0.000000 -1.000000 0.000000
vn 0.000000 -1.000000 0.000000
vn 0.000000 -1.000000 -0.000000
vn 0.000000 -1.000000 -0.000000
vn 0.000000 -1.000000 0.000000
vn 0.000000 -1.000000 0.000000
vn 0.000000 -1.000000 0.000000
vn 0.000000 -1.000000 0.000000
vn 0.000000 -1.000000 0.000000
vn 0.000000 -1.000000 -0.000000
vn 0.000000 1.000000 0.000000
vn 0.000000 1.000000 0.000000
vn 0.000000 1.000000 0.000001
vn 0.000000 1.000000 0.000007
vn 0.000000 1.000000 0.000007
vn 0.000000 1.000000 0.000000
vn 0.000000 1.000000 0.000004
vn 0.000000 1.000000 0.000004
vn 0.000000 1.000000 0.000007
vn 0.000000 1.000000 -0.000007
vn 0.000000 1.000000 -0.000000
vn 0.000000 1.000000 0.000014
vn 0.000000 1.000000 0.000000
vn 0.000000 1.000000 -0.000007
vn 0.000000 1.000000 -0.000007
vn 0.000000 1.000000 0.000000
vn 0.000000 1.000000 -0.000004
vn 0.000000 1.000000 -0.000004
vn 0.000000 1.000000 0.000000
vn 0.000000 1.000000 0.000000
vn 0.000000 1.000000 0.000000
s 1
g polySurface37
usemtl lambert3SG
f 1/1/1 2/2/2 13/3/3 12/4/4
f 2/2/2 3/5/5 14/6/6 13/3/3
f 3/5/5 4/7/7 15/8/8 14/6/6
f 4/7/7 5/9/9 16/10/10 15/8/8
f 5/9/9 6/11/11 17/12/12 16/10/10
f 6/11/11 7/13/13 18/14/14 17/12/12
f 7/13/13 8/15/15 19/16/16 18/14/14
f 8/15/15 9/17/17 20/18/18 19/16/16
f 9/17/17 10/19/19 21/20/20 20/18/18
f 10/19/19 11/21/21 22/22/22 21/20/20
f 12/4/4 13/3/3 24/23/23 23/24/24
f 13/3/3 14/6/6 25/25/25 24/23/23
f 14/6/6 15/8/8 26/26/26 25/25/25
f 15/8/8 16/10/10 27/27/27 26/26/26
f 16/10/10 17/12/12 28/28/28 27/27/27
f 17/12/12 18/14/14 29/29/29 28/28/28
f 18/14/14 19/16/16 30/30/30 29/29/29
f 19/16/16 20/18/18 31/31/31 30/30/30
f 20/18/18 21/20/20 32/32/32 31/31/31
f 21/20/20 22/22/22 33/33/33 32/32/32
f 23/24/24 24/23/23 35/34/34 34/35/35
f 24/23/23 25/25/25 36/36/36 35/34/34
f 25/25/25 26/26/26 37/37/37 36/36/36
f 26/26/26 27/27/27 38/38/38 37/37/37
f 27/27/27 28/28/28 39/39/39 38/38/38
f 28/28/28 29/29/29 40/40/40 39/39/39
f 29/29/29 30/30/30 41/41/41 40/40/40
f 30/30/30 31/31/31 42/42/42 41/41/41
f 31/31/31 32/32/32 43/43/43 42/42/42
f 32/32/32 33/33/33 44/44/44 43/43/43
f 34/35/35 35/34/34 46/45/45 45/46/46
f 35/34/34 36/36/36 47/47/47 46/45/45
f 36/36/36 37/37/37 48/48/48 47/47/47
f 37/37/37 38/38/38 49/49/49 48/48/48
f 38/38/38 39/39/39 50/50/50 49/49/49
f 39/39/39 40/40/40 51/51/51 50/50/50
f 40/40/40 41/41/41 52/52/52 51/51/51
f 41/41/41 42/42/42 53/53/53 52/52/52
f 42/42/42 43/43/43 54/54/54 53/53/53
f 43/43/43 44/44/44 55/55/55 54/54/54
f 45/46/46 46/45/45 57/56/56 56/57/57
f 46/45/45 47/47/47 58/58/58 57/56/56
f 47/47/47 48/48/48 59/59/59 58/58/58
f 48/48/48 49/49/49 60/60/60 59/59/59
f 49/49/49 50/50/50 61/61/61 60/60/60
f 50/50/50 51/51/51 62/62/62 61/61/61
f 51/51/51 52/52/52 63/63/63 62/62/62
f 52/52/52 53/53/53 64/64/64 63/63/63
f 53/53/53 54/54/54 65/65/65 64/64/64
f 54/54/54 55/55/55 66/66/66 65/65/65
f 56/57/57 57/56/56 68/67/67 67/68/68
f 57/56/56 58/58/58 69/69/69 68/67/67
f 58/58/58 59/59/59 70/70/70 69/69/69
f 59/59/59 60/60/60 71/71/71 70/70/70
f 60/60/60 61/61/61 72/72/72 71/71/71
f 61/61/61 62/62/62 73/73/73 72/72/72
f 62/62/62 63/63/63 74/74/74 73/73/73
f 63/63/63 64/64/64 75/75/75 74/74/74
f 64/64/64 65/65/65 76/76/76 75/75/75
f 65/65/65 66/66/66 77/77/77 76/76/76
f 67/68/68 68/67/67 79/78/78 78/79/79
f 68/67/67 69/69/69 80/80/80 79/78/78
f 69/69/69 70/70/70 81/81/81 80/80/80
f 70/70/70 71/71/71 82/82/82 81/81/81
f 71/71/71 72/72/72 83/83/83 82/82/82
f 72/72/72 73/73/73 84/84/84 83/83/83
f 73/73/73 74/74/74 85/85/85 84/84/84
f 74/74/74 75/75/75 86/86/86 85/85/85
f 75/75/75 76/76/76 87/87/87 86/86/86
f 76/76/76 77/77/77 88/88/88 87/87/87
f 78/79/79 79/78/78 90/89/89 89/90/90
f 79/78/78 80/80/80 91/91/91 90/89/89
f 80/80/80 81/81/81 92/92/92 91/91/91
f 81/81/81 82/82/82 93/93/93 92/92/92
f 82/82/82 83/83/83 94/94/94 93/93/93
f 83/83/83 84/84/84 95/95/95 94/94/94
f 84/84/84 85/85/85 96/96/96 95/95/95
f 85/85/85 86/86/86 97/97/97 96/96/96
f 86/86/86 87/87/87 98/98/98 97/97/97
f 87/87/87 88/88/88 99/99/99 98/98/98
f 89/90/90 90/89/89 101/100/100 100/101/101
f 90/89/89 91/91/91 102/102/102 101/100/100
f 91/91/91 92/92/92 103/103/103 102/102/102
f 92/92/92 93/93/93 104/104/104 103/103/103
f 93/93/93 94/94/94 105/105/105 104/104/104
f 94/94/94 95/95/95 106/106/106 105/105/105
f 95/95/95 96/96/96 107/107/107 106/106/106
f 96/96/96 97/97/97 108/108/108 107/107/107
f 97/97/97 98/98/98 109/109/109 108/108/108
f 98/98/98 99/99/99 110/110/110 109/109/109
f 100/101/101 101/100/100 112/111/111 111/112/112
f 101/100/100 102/102/102 113/113/113 112/111/111
f 102/102/102 103/103/103 114/114/114 113/113/113
f 103/103/103 104/104/104 115/115/115 114/114/114
f 104/104/104 105/105/105 116/116/116 115/115/115
f 105/105/105 106/106/106 117/117/117 116/116/116
f 106/106/106 107/107/107 118/118/118 117/117/117
f 107/107/107 108/108/108 119/119/119 118/118/118
f 108/108/108 109/109/109 120/120/120 119/119/119
f 109/109/109 110/110/110 121/121/121 120/120/120
s 2
f 122/122/122 123/123/123 143/124/124 142/125/125
f 123/123/123 124/126/126 144/127/127 143/124/124
f 124/126/126 125/128/128 145/129/129 144/127/127
f 125/128/128 126/130/130 146/205/131 145/129/129
f 126/204/130 127/132/132 147/133/133 146/131/131
f 127/132/132 128/134/134 148/135/135 147/133/133
f 128/134/134 129/136/136 149/137/137 148/135/135
f 129/136/136 130/138/138 150/139/139 149/137/137
f 130/138/138 131/140/140 151/141/141 150/139/139
f 131/140/140 132/142/142 152/143/143 151/141/141
f 132/142/142 133/144/144 153/145/145 152/143/143
f 133/144/144 134/146/146 154/147/147 153/145/145
f 134/146/146 135/148/148 155/149/149 154/147/147
f 135/148/148 136/150/150 156/151/151 155/149/149
f 136/150/150 137/152/152 157/153/153 156/151/151
f 137/152/152 138/154/154 158/155/155 157/153/153
f 138/154/154 139/156/156 159/157/157 158/155/155
f 139/156/156 140/158/158 160/159/159 159/157/157
f 140/158/158 141/160/160 161/161/161 160/159/159
f 141/160/160 122/122/122 142/125/125 161/161/161
s 3
f 123/164/162 122/165/163 162/166/164
f 124/167/165 123/164/162 162/166/164
f 125/168/166 124/167/165 162/166/164
f 126/169/167 125/168/166 162/166/164
f 127/170/168 126/169/167 162/166/164
f 128/171/169 127/170/168 162/166/164
f 129/172/170 128/171/169 162/166/164
f 130/173/171 129/172/170 162/166/164
f 131/174/172 130/173/171 162/166/164
f 132/175/173 131/174/172 162/166/164
f 133/176/174 132/175/173 162/166/164
f 134/177/175 133/176/174 162/166/164
f 135/178/176 134/177/175 162/166/164
f 136/179/177 135/178/176 162/166/164
f 137/180/178 136/179/177 162/166/164
f 138/181/179 137/180/178 162/166/164
f 139/182/180 138/181/179 162/166/164
f 140/183/181 139/182/180 162/166/164
f 141/184/182 140/183/181 162/166/164
f 122/165/163 141/184/182 162/166/164
s 4
f 142/185/183 143/186/184 163/187/185
f 143/186/184 144/188/186 163/187/185
f 144/188/186 145/189/187 163/187/185
f 145/189/187 146/190/188 163/187/185
f 146/190/188 147/191/189 163/187/185
f 147/191/189 148/192/190 163/187/185
f 148/192/190 149/193/191 163/187/185
f 149/193/191 150/194/192 163/187/185
f 150/194/192 151/195/193 163/187/185
f 151/195/193 152/196/194 163/187/185
f 152/196/194 153/197/195 163/187/185
f 153/197/195 154/198/196 163/187/185
f 154/198/196 155/199/197 163/187/185
f 155/199/197 156/200/198 163/187/185
f 156/200/198 157/201/199 163/187/185
f 157/201/199 158/202/200 163/187/185
f 158/202/200 159/203/201 163/187/185
f 159/203/201 160/163/202 163/187/185
f 160/163/202 161/162/203 163/187/185
f 161/162/203 142/185/183 163/187/185
