# This file uses centimeters as units for non-parametric coordinates.

mtllib Padlock opening.mtl
g default
v -0.000000 1.638118 -2.643607
v -0.000000 1.595099 -2.693334
v -0.000000 1.532935 -2.720931
v -0.000000 1.455893 -2.719884
v 0.000000 1.460328 -2.443316
v -0.000000 1.532935 -2.442265
v -0.000000 1.595099 -2.469861
v -0.000000 1.638118 -2.519589
v -0.000000 1.653472 -2.581598
v -0.011977 1.639827 -2.644366
v -0.011977 1.596282 -2.694701
v -0.011977 1.533357 -2.722636
v -0.011977 1.455865 -2.721640
v -0.011977 1.460318 -2.441560
v -0.011977 1.533357 -2.440560
v -0.011977 1.596282 -2.468494
v -0.011977 1.639827 -2.518830
v -0.011977 1.655369 -2.581598
v -0.022782 1.644787 -2.646567
v -0.022782 1.599715 -2.698669
v -0.022782 1.534583 -2.727583
v -0.022782 1.455783 -2.726736
v -0.022782 1.460289 -2.436462
v -0.022782 1.534582 -2.435612
v -0.022782 1.599715 -2.464526
v -0.022782 1.644787 -2.516628
v -0.022782 1.660874 -2.581598
v -0.031356 1.652513 -2.649997
v -0.031356 1.605061 -2.704849
v -0.031356 1.536491 -2.735290
v -0.031356 1.455654 -2.734674
v -0.031356 1.460244 -2.428524
v -0.031356 1.536491 -2.427906
v -0.031356 1.605061 -2.458346
v -0.031356 1.652513 -2.513198
v -0.031356 1.669448 -2.581598
v -0.036862 1.662248 -2.654319
v -0.036862 1.611797 -2.712636
v -0.036862 1.538895 -2.745000
v -0.036862 1.455493 -2.744677
v -0.036862 1.460186 -2.418520
v -0.036862 1.538895 -2.418195
v -0.036862 1.611797 -2.450559
v -0.036862 1.662248 -2.508877
v -0.036862 1.680253 -2.581598
v -0.038759 1.673039 -2.659109
v -0.038759 1.619265 -2.721268
v -0.038759 1.541560 -2.755764
v -0.038759 1.455314 -2.755764
v -0.038759 1.460123 -2.407431
v -0.038759 1.541560 -2.407431
v -0.038759 1.619265 -2.441927
v -0.038759 1.673039 -2.504086
v -0.038759 1.692230 -2.581598
v -0.036862 1.683830 -2.663900
v -0.036862 1.626733 -2.729901
v -0.036862 1.544225 -2.766528
v -0.036862 1.455135 -2.766852
v -0.036862 1.460059 -2.396342
v -0.036862 1.544225 -2.396667
v -0.036862 1.626733 -2.433295
v -0.036862 1.683830 -2.499296
v -0.036862 1.704207 -2.581598
v -0.031356 1.693564 -2.668221
v -0.031356 1.633469 -2.737688
v -0.031356 1.546629 -2.776239
v -0.031356 1.454973 -2.776854
v -0.031356 1.460002 -2.386339
v -0.031356 1.546629 -2.386957
v -0.031356 1.633469 -2.425508
v -0.031356 1.693564 -2.494974
v -0.031356 1.715012 -2.581598
v -0.022782 1.701290 -2.671651
v -0.022782 1.638815 -2.743868
v -0.022782 1.548537 -2.783945
v -0.022782 1.454845 -2.784792
v -0.022782 1.459957 -2.378400
v -0.022782 1.548537 -2.379251
v -0.022782 1.638815 -2.419328
v -0.022782 1.701290 -2.491545
v -0.022782 1.723587 -2.581598
v -0.011977 1.706250 -2.673853
v -0.011977 1.642248 -2.747835
v -0.011977 1.549762 -2.788893
v -0.011977 1.454763 -2.789889
v -0.011977 1.459927 -2.373303
v -0.011977 1.549762 -2.374303
v -0.011977 1.642248 -2.415360
v -0.011977 1.706250 -2.489343
v -0.011977 1.729092 -2.581598
v -0.000000 1.707959 -2.674611
v -0.000000 1.643431 -2.749203
v -0.000000 1.550185 -2.790598
v -0.000000 1.454734 -2.791645
v 0.000000 1.459917 -2.371547
v -0.000000 1.550185 -2.372598
v -0.000000 1.643431 -2.413993
v -0.000000 1.707959 -2.488584
v -0.000000 1.730989 -2.581598
v 0.011977 1.706250 -2.673853
v 0.011977 1.642248 -2.747835
v 0.011977 1.549762 -2.788893
v 0.011977 1.454763 -2.789889
v 0.011977 1.459927 -2.373303
v 0.011977 1.549762 -2.374303
v 0.011977 1.642248 -2.415360
v 0.011977 1.706250 -2.489343
v 0.011977 1.729092 -2.581598
v 0.022782 1.701290 -2.671651
v 0.022782 1.638815 -2.743868
v 0.022782 1.548537 -2.783945
v 0.022782 1.454845 -2.784792
v 0.022782 1.459957 -2.378400
v 0.022782 1.548537 -2.379251
v 0.022782 1.638815 -2.419328
v 0.022782 1.701290 -2.491545
v 0.022782 1.723587 -2.581598
v 0.031356 1.693564 -2.668221
v 0.031356 1.633469 -2.737688
v 0.031356 1.546629 -2.776239
v 0.031356 1.454973 -2.776854
v 0.031356 1.460002 -2.386339
v 0.031356 1.546629 -2.386957
v 0.031356 1.633469 -2.425508
v 0.031356 1.693564 -2.494974
v 0.031356 1.715012 -2.581598
v 0.036862 1.683830 -2.663900
v 0.036862 1.626733 -2.729901
v 0.036862 1.544225 -2.766528
v 0.036862 1.455135 -2.766852
v 0.036862 1.460059 -2.396342
v 0.036862 1.544225 -2.396667
v 0.036862 1.626733 -2.433295
v 0.036862 1.683830 -2.499296
v 0.036862 1.704207 -2.581598
v 0.038759 1.673039 -2.659109
v 0.038759 1.619265 -2.721268
v 0.038759 1.541560 -2.755764
v 0.038759 1.455314 -2.755764
v 0.038759 1.460123 -2.407431
v 0.038759 1.541560 -2.407431
v 0.038759 1.619265 -2.441927
v 0.038759 1.673039 -2.504086
v 0.038759 1.692230 -2.581598
v 0.036862 1.662248 -2.654319
v 0.036862 1.611797 -2.712636
v 0.036862 1.538895 -2.745000
v 0.036862 1.455493 -2.744677
v 0.036862 1.460186 -2.418520
v 0.036862 1.538895 -2.418195
v 0.036862 1.611797 -2.450559
v 0.036862 1.662248 -2.508877
v 0.036862 1.680253 -2.581598
v 0.031356 1.652513 -2.649997
v 0.031356 1.605061 -2.704849
v 0.031356 1.536491 -2.735290
v 0.031356 1.455654 -2.734674
v 0.031356 1.460244 -2.428524
v 0.031356 1.536491 -2.427906
v 0.031356 1.605061 -2.458346
v 0.031356 1.652513 -2.513198
v 0.031356 1.669448 -2.581598
v 0.022782 1.644787 -2.646567
v 0.022782 1.599715 -2.698669
v 0.022782 1.534583 -2.727583
v 0.022782 1.455783 -2.726736
v 0.022782 1.460289 -2.436463
v 0.022782 1.534582 -2.435612
v 0.022782 1.599715 -2.464526
v 0.022782 1.644787 -2.516628
v 0.022782 1.660874 -2.581598
v 0.011977 1.639827 -2.644366
v 0.011977 1.596282 -2.694701
v 0.011977 1.533357 -2.722636
v 0.011977 1.455865 -2.721640
v 0.011977 1.460318 -2.441560
v 0.011977 1.533357 -2.440560
v 0.011977 1.596282 -2.468494
v 0.011977 1.639827 -2.518830
v 0.011977 1.655368 -2.581598
vt 0.000000 1.000000
vt 0.071429 1.000000
vt 0.142857 1.000000
vt 0.214286 1.000000
vt 0.642857 1.000000
vt 0.714286 1.000000
vt 0.785714 1.000000
vt 0.857143 1.000000
vt 0.928572 1.000000
vt 1.000000 1.000000
vt 0.000000 0.950000
vt 0.071429 0.950000
vt 0.142857 0.950000
vt 0.214286 0.950000
vt 0.642857 0.950000
vt 0.714286 0.950000
vt 0.785714 0.950000
vt 0.857143 0.950000
vt 0.928572 0.950000
vt 1.000000 0.950000
vt 0.000000 0.900000
vt 0.071429 0.900000
vt 0.142857 0.900000
vt 0.214286 0.900000
vt 0.642857 0.900000
vt 0.714286 0.900000
vt 0.785714 0.900000
vt 0.857143 0.900000
vt 0.928572 0.900000
vt 1.000000 0.900000
vt 0.000000 0.850000
vt 0.071429 0.850000
vt 0.142857 0.850000
vt 0.214286 0.850000
vt 0.642857 0.850000
vt 0.714286 0.850000
vt 0.785714 0.850000
vt 0.857143 0.850000
vt 0.928572 0.850000
vt 1.000000 0.850000
vt 0.000000 0.800000
vt 0.071429 0.800000
vt 0.142857 0.800000
vt 0.214286 0.800000
vt 0.642857 0.800000
vt 0.714286 0.800000
vt 0.785714 0.800000
vt 0.857143 0.800000
vt 0.928572 0.800000
vt 1.000000 0.800000
vt 0.000000 0.750000
vt 0.071429 0.750000
vt 0.142857 0.750000
vt 0.214286 0.750000
vt 0.642857 0.750000
vt 0.714286 0.750000
vt 0.785714 0.750000
vt 0.857143 0.750000
vt 0.928572 0.750000
vt 1.000000 0.750000
vt 0.000000 0.700000
vt 0.071429 0.700000
vt 0.142857 0.700000
vt 0.214286 0.700000
vt 0.642857 0.700000
vt 0.714286 0.700000
vt 0.785714 0.700000
vt 0.857143 0.700000
vt 0.928572 0.700000
vt 1.000000 0.700000
vt 0.000000 0.650000
vt 0.071429 0.650000
vt 0.142857 0.650000
vt 0.214286 0.650000
vt 0.642857 0.650000
vt 0.714286 0.650000
vt 0.785714 0.650000
vt 0.857143 0.650000
vt 0.928572 0.650000
vt 1.000000 0.650000
vt 0.000000 0.600000
vt 0.071429 0.600000
vt 0.142857 0.600000
vt 0.214286 0.600000
vt 0.642857 0.600000
vt 0.714286 0.600000
vt 0.785714 0.600000
vt 0.857143 0.600000
vt 0.928572 0.600000
vt 1.000000 0.600000
vt 0.000000 0.550000
vt 0.071429 0.550000
vt 0.142857 0.550000
vt 0.214286 0.550000
vt 0.642857 0.550000
vt 0.714286 0.550000
vt 0.785714 0.550000
vt 0.857143 0.550000
vt 0.928572 0.550000
vt 1.000000 0.550000
vt 0.000000 0.500000
vt 0.071429 0.500000
vt 0.142857 0.500000
vt 0.214286 0.500000
vt 0.642857 0.500000
vt 0.714286 0.500000
vt 0.785714 0.500000
vt 0.857143 0.500000
vt 0.928572 0.500000
vt 1.000000 0.500000
vt 0.000000 0.450000
vt 0.071429 0.450000
vt 0.142857 0.450000
vt 0.214286 0.450000
vt 0.642857 0.450000
vt 0.714286 0.450000
vt 0.785714 0.450000
vt 0.857143 0.450000
vt 0.928572 0.450000
vt 1.000000 0.450000
vt 0.000000 0.400000
vt 0.071429 0.400000
vt 0.142857 0.400000
vt 0.214286 0.400000
vt 0.642857 0.400000
vt 0.714286 0.400000
vt 0.785714 0.400000
vt 0.857143 0.400000
vt 0.928572 0.400000
vt 1.000000 0.400000
vt 0.000000 0.350000
vt 0.071429 0.350000
vt 0.142857 0.350000
vt 0.214286 0.350000
vt 0.642857 0.350000
vt 0.714286 0.350000
vt 0.785714 0.350000
vt 0.857143 0.350000
vt 0.928572 0.350000
vt 1.000000 0.350000
vt 0.000000 0.300000
vt 0.071429 0.300000
vt 0.142857 0.300000
vt 0.214286 0.300000
vt 0.642857 0.300000
vt 0.714286 0.300000
vt 0.785714 0.300000
vt 0.857143 0.300000
vt 0.928572 0.300000
vt 1.000000 0.300000
vt 0.000000 0.250000
vt 0.071429 0.250000
vt 0.142857 0.250000
vt 0.214286 0.250000
vt 0.642857 0.250000
vt 0.714286 0.250000
vt 0.785714 0.250000
vt 0.857143 0.250000
vt 0.928572 0.250000
vt 1.000000 0.250000
vt 0.000000 0.200000
vt 0.071429 0.200000
vt 0.142857 0.200000
vt 0.214286 0.200000
vt 0.642857 0.200000
vt 0.714286 0.200000
vt 0.785714 0.200000
vt 0.857143 0.200000
vt 0.928572 0.200000
vt 1.000000 0.200000
vt 0.000000 0.150000
vt 0.071429 0.150000
vt 0.142857 0.150000
vt 0.214286 0.150000
vt 0.642857 0.150000
vt 0.714286 0.150000
vt 0.785714 0.150000
vt 0.857143 0.150000
vt 0.928572 0.150000
vt 1.000000 0.150000
vt 0.000000 0.100000
vt 0.071429 0.100000
vt 0.142857 0.100000
vt 0.214286 0.100000
vt 0.642857 0.100000
vt 0.714286 0.100000
vt 0.785714 0.100000
vt 0.857143 0.100000
vt 0.928572 0.100000
vt 1.000000 0.100000
vt 0.000000 0.050000
vt 0.071429 0.050000
vt 0.142857 0.050000
vt 0.214286 0.050000
vt 0.642857 0.050000
vt 0.714286 0.050000
vt 0.785714 0.050000
vt 0.857143 0.050000
vt 0.928572 0.050000
vt 1.000000 0.050000
vt 0.000000 -0.000000
vt 0.071429 -0.000000
vt 0.142857 -0.000000
vt 0.214286 -0.000000
vt 0.642857 -0.000000
vt 0.714286 -0.000000
vt 0.785714 -0.000000
vt 0.857143 -0.000000
vt 0.928572 -0.000000
vt 1.000000 -0.000000
vn -0.000001 -0.592309 0.805710
vn -0.000001 -0.886341 0.463032
vn -0.312511 -0.841948 0.439841
vn -0.302781 -0.564507 0.767890
vn -0.000001 -0.187730 0.982221
vn -0.297501 -0.180231 0.937555
vn -0.000001 0.013219 0.999913
vn -0.284621 0.012019 0.958565
vn -0.000001 -0.193631 -0.981074
vn -0.000001 0.014081 -0.999901
vn -0.284317 0.012805 -0.958645
vn -0.297556 -0.185868 -0.936436
vn -0.000001 -0.592309 -0.805711
vn -0.302782 -0.564506 -0.767890
vn -0.000001 -0.886341 -0.463032
vn -0.312511 -0.841948 -0.439841
vn -0.000001 -1.000000 -0.000000
vn -0.317153 -0.948374 -0.000000
vn -0.594543 -0.712675 0.372308
vn -0.581104 -0.482039 0.655711
vn -0.573564 -0.157024 0.803970
vn -0.553491 0.008839 0.832808
vn -0.552992 0.009420 -0.833133
vn -0.573640 -0.161866 -0.802955
vn -0.581104 -0.482039 -0.655711
vn -0.594542 -0.712675 -0.372308
vn -0.600831 -0.799376 -0.000000
vn -0.817458 -0.510523 0.266701
vn -0.807818 -0.349126 0.474912
vn -0.802091 -0.116944 0.585640
vn -0.783741 0.004836 0.621068
vn -0.783232 0.005158 -0.621708
vn -0.802148 -0.120476 -0.584845
vn -0.807818 -0.349126 -0.474912
vn -0.817458 -0.510522 -0.266701
vn -0.821860 -0.569689 -0.000000
vn -0.957461 -0.255765 0.133614
vn -0.954589 -0.176464 0.240041
vn -0.952670 -0.060830 0.297860
vn -0.943268 0.001563 0.332028
vn -0.942949 0.001671 -0.332932
vn -0.952693 -0.062624 -0.297412
vn -0.954589 -0.176464 -0.240042
vn -0.957461 -0.255765 -0.133614
vn -0.958747 -0.284259 -0.000000
vn -0.999620 0.024424 -0.012759
vn -0.999593 0.016902 -0.022991
vn -0.999610 0.006157 -0.027229
vn -0.999990 0.000326 -0.004487
vn -0.999994 0.000346 0.003484
vn -0.999609 0.006335 0.027248
vn -0.999593 0.016902 0.022991
vn -0.999620 0.024424 0.012759
vn -0.999632 0.027109 0.000000
vn -0.941073 0.299765 -0.156600
vn -0.937202 0.206590 -0.281022
vn -0.935413 0.074853 -0.345541
vn -0.940549 0.001484 -0.339655
vn -0.940870 0.001571 0.338765
vn -0.935396 0.076964 0.345124
vn -0.937202 0.206590 0.281022
vn -0.941073 0.299765 0.156600
vn -0.942811 0.333328 0.000000
vn -0.791227 0.542018 -0.283155
vn -0.780733 0.370114 -0.503461
vn -0.775487 0.135560 -0.616639
vn -0.780020 0.004298 -0.625740
vn -0.780516 0.004556 0.625119
vn -0.775458 0.139311 0.615839
vn -0.780733 0.370113 0.503461
vn -0.791227 0.542018 0.283155
vn -0.796035 0.605251 0.000000
vn -0.568654 0.729084 -0.380879
vn -0.555223 0.492625 -0.670111
vn -0.548443 0.181523 -0.816247
vn -0.550498 0.007475 -0.834803
vn -0.550971 0.007931 0.834486
vn -0.548411 0.186474 0.815152
vn -0.555223 0.492625 0.670111
vn -0.568654 0.729084 0.380880
vn -0.574954 0.818186 0.000000
vn -0.296677 0.846436 -0.442186
vn -0.287347 0.567330 -0.771731
vn -0.282653 0.209632 -0.936035
vn -0.283089 0.009856 -0.959043
vn -0.283371 0.010462 0.958953
vn -0.282632 0.215299 0.934754
vn -0.287348 0.567329 0.771731
vn -0.296678 0.846436 0.442185
vn -0.301133 0.953582 0.000000
vn -0.000000 0.886341 -0.463032
vn 0.000000 0.592310 -0.805710
vn 0.000000 0.219034 -0.975717
vn 0.000000 0.010727 -0.999942
vn 0.000000 0.011387 0.999935
vn 0.000000 0.224936 0.974373
vn 0.000000 0.592309 0.805711
vn 0.000000 0.886341 0.463032
vn -0.000000 1.000000 0.000000
vn 0.296677 0.846436 -0.442186
vn 0.287347 0.567330 -0.771731
vn 0.282653 0.209632 -0.936035
vn 0.283088 0.009856 -0.959043
vn 0.283371 0.010462 0.958953
vn 0.282632 0.215299 0.934754
vn 0.287348 0.567329 0.771731
vn 0.296678 0.846436 0.442185
vn 0.301133 0.953582 0.000000
vn 0.568654 0.729084 -0.380880
vn 0.555223 0.492625 -0.670111
vn 0.548443 0.181523 -0.816248
vn 0.550497 0.007475 -0.834803
vn 0.550971 0.007931 0.834487
vn 0.548411 0.186474 0.815152
vn 0.555223 0.492625 0.670111
vn 0.568654 0.729084 0.380880
vn 0.574954 0.818186 0.000000
vn 0.791226 0.542019 -0.283155
vn 0.780732 0.370114 -0.503461
vn 0.775487 0.135560 -0.616639
vn 0.780020 0.004298 -0.625740
vn 0.780516 0.004556 0.625120
vn 0.775458 0.139311 0.615839
vn 0.780732 0.370114 0.503461
vn 0.791227 0.542018 0.283155
vn 0.796035 0.605251 0.000000
vn 0.941073 0.299765 -0.156600
vn 0.937202 0.206591 -0.281022
vn 0.935413 0.074853 -0.345541
vn 0.940549 0.001485 -0.339655
vn 0.940870 0.001571 0.338765
vn 0.935396 0.076964 0.345125
vn 0.937202 0.206590 0.281022
vn 0.941073 0.299765 0.156600
vn 0.942811 0.333328 0.000000
vn 0.999620 0.024424 -0.012759
vn 0.999593 0.016902 -0.022991
vn 0.999610 0.006157 -0.027229
vn 0.999990 0.000326 -0.004487
vn 0.999994 0.000346 0.003485
vn 0.999609 0.006335 0.027248
vn 0.999593 0.016902 0.022991
vn 0.999620 0.024424 0.012759
vn 0.999632 0.027109 0.000000
vn 0.957461 -0.255765 0.133614
vn 0.954589 -0.176464 0.240041
vn 0.952670 -0.060829 0.297860
vn 0.943268 0.001563 0.332028
vn 0.942950 0.001671 -0.332931
vn 0.952694 -0.062624 -0.297411
vn 0.954589 -0.176464 -0.240041
vn 0.957461 -0.255765 -0.133614
vn 0.958748 -0.284259 -0.000000
vn 0.817458 -0.510523 0.266701
vn 0.807818 -0.349126 0.474912
vn 0.802091 -0.116944 0.585640
vn 0.783741 0.004836 0.621068
vn 0.783232 0.005158 -0.621708
vn 0.802148 -0.120476 -0.584845
vn 0.807818 -0.349126 -0.474912
vn 0.817458 -0.510522 -0.266701
vn 0.821860 -0.569689 -0.000000
vn 0.594543 -0.712675 0.372308
vn 0.581104 -0.482039 0.655711
vn 0.573564 -0.157024 0.803970
vn 0.553491 0.008839 0.832808
vn 0.552992 0.009420 -0.833133
vn 0.573640 -0.161866 -0.802954
vn 0.581104 -0.482039 -0.655711
vn 0.594542 -0.712675 -0.372308
vn 0.600831 -0.799376 -0.000000
vn 0.312511 -0.841948 0.439841
vn 0.302781 -0.564507 0.767891
vn 0.297500 -0.180231 0.937556
vn 0.284620 0.012020 0.958565
vn 0.284317 0.012805 -0.958645
vn 0.297556 -0.185868 -0.936437
vn 0.302781 -0.564506 -0.767891
vn 0.312510 -0.841948 -0.439841
vn 0.317153 -0.948374 -0.000000
vn 0.000000 -0.999984 -0.005726
vn 0.000000 -0.999984 -0.005726
vn 0.000000 -0.999984 -0.005726
vn 0.000000 -0.999984 -0.005726
vn 0.000000 -0.999984 -0.005726
vn 0.000000 -0.999984 -0.005726
vn 0.000000 -0.999984 -0.005726
vn 0.000000 -0.999984 -0.005726
vn 0.000000 -0.999984 -0.005726
vn 0.000000 -0.999984 -0.005726
vn 0.000000 -0.999984 -0.005726
vn 0.000000 -0.999984 -0.005726
vn 0.000000 -0.999984 -0.005726
vn 0.000000 -0.999984 -0.005726
vn 0.000000 -0.999984 -0.005726
vn 0.000000 -0.999984 -0.005726
vn 0.000000 -0.999984 -0.005726
vn 0.000000 -0.999984 -0.005726
vn 0.000000 -0.999984 -0.005726
vn 0.000000 -0.999984 -0.005726
vn -0.000000 -0.999870 0.016148
vn -0.000000 -0.999870 0.016148
vn -0.000000 -0.999870 0.016148
vn -0.000000 -0.999870 0.016148
vn -0.000000 -0.999870 0.016148
vn -0.000000 -0.999870 0.016148
vn -0.000000 -0.999870 0.016148
vn -0.000000 -0.999870 0.016148
vn -0.000000 -0.999870 0.016148
vn -0.000000 -0.999870 0.016148
vn -0.000000 -0.999870 0.016148
vn -0.000000 -0.999870 0.016148
vn -0.000000 -0.999870 0.016148
vn -0.000000 -0.999870 0.016148
vn -0.000000 -0.999870 0.016148
vn -0.000000 -0.999870 0.016148
vn -0.000000 -0.999870 0.016148
vn -0.000000 -0.999870 0.016148
vn -0.000000 -0.999870 0.016148
vn -0.000000 -0.999870 0.016148
s 1
g pTorus1
usemtl initialShadingGroup
f 2/2/1 1/1/2 10/11/3 11/12/4
f 3/3/5 2/2/1 11/12/4 12/13/6
f 4/4/7 3/3/5 12/13/6 13/14/8
f 6/6/9 5/5/10 14/15/11 15/16/12
f 7/7/13 6/6/9 15/16/12 16/17/14
f 8/8/15 7/7/13 16/17/14 17/18/16
f 9/9/17 8/8/15 17/18/16 18/19/18
f 1/10/2 9/9/17 18/19/18 10/20/3
f 11/12/4 10/11/3 19/21/19 20/22/20
f 12/13/6 11/12/4 20/22/20 21/23/21
f 13/14/8 12/13/6 21/23/21 22/24/22
f 15/16/12 14/15/11 23/25/23 24/26/24
f 16/17/14 15/16/12 24/26/24 25/27/25
f 17/18/16 16/17/14 25/27/25 26/28/26
f 18/19/18 17/18/16 26/28/26 27/29/27
f 10/20/3 18/19/18 27/29/27 19/30/19
f 20/22/20 19/21/19 28/31/28 29/32/29
f 21/23/21 20/22/20 29/32/29 30/33/30
f 22/24/22 21/23/21 30/33/30 31/34/31
f 24/26/24 23/25/23 32/35/32 33/36/33
f 25/27/25 24/26/24 33/36/33 34/37/34
f 26/28/26 25/27/25 34/37/34 35/38/35
f 27/29/27 26/28/26 35/38/35 36/39/36
f 19/30/19 27/29/27 36/39/36 28/40/28
f 29/32/29 28/31/28 37/41/37 38/42/38
f 30/33/30 29/32/29 38/42/38 39/43/39
f 31/34/31 30/33/30 39/43/39 40/44/40
f 33/36/33 32/35/32 41/45/41 42/46/42
f 34/37/34 33/36/33 42/46/42 43/47/43
f 35/38/35 34/37/34 43/47/43 44/48/44
f 36/39/36 35/38/35 44/48/44 45/49/45
f 28/40/28 36/39/36 45/49/45 37/50/37
f 38/42/38 37/41/37 46/51/46 47/52/47
f 39/43/39 38/42/38 47/52/47 48/53/48
f 40/44/40 39/43/39 48/53/48 49/54/49
f 42/46/42 41/45/41 50/55/50 51/56/51
f 43/47/43 42/46/42 51/56/51 52/57/52
f 44/48/44 43/47/43 52/57/52 53/58/53
f 45/49/45 44/48/44 53/58/53 54/59/54
f 37/50/37 45/49/45 54/59/54 46/60/46
f 47/52/47 46/51/46 55/61/55 56/62/56
f 48/53/48 47/52/47 56/62/56 57/63/57
f 49/54/49 48/53/48 57/63/57 58/64/58
f 51/56/51 50/55/50 59/65/59 60/66/60
f 52/57/52 51/56/51 60/66/60 61/67/61
f 53/58/53 52/57/52 61/67/61 62/68/62
f 54/59/54 53/58/53 62/68/62 63/69/63
f 46/60/46 54/59/54 63/69/63 55/70/55
f 56/62/56 55/61/55 64/71/64 65/72/65
f 57/63/57 56/62/56 65/72/65 66/73/66
f 58/64/58 57/63/57 66/73/66 67/74/67
f 60/66/60 59/65/59 68/75/68 69/76/69
f 61/67/61 60/66/60 69/76/69 70/77/70
f 62/68/62 61/67/61 70/77/70 71/78/71
f 63/69/63 62/68/62 71/78/71 72/79/72
f 55/70/55 63/69/63 72/79/72 64/80/64
f 65/72/65 64/71/64 73/81/73 74/82/74
f 66/73/66 65/72/65 74/82/74 75/83/75
f 67/74/67 66/73/66 75/83/75 76/84/76
f 69/76/69 68/75/68 77/85/77 78/86/78
f 70/77/70 69/76/69 78/86/78 79/87/79
f 71/78/71 70/77/70 79/87/79 80/88/80
f 72/79/72 71/78/71 80/88/80 81/89/81
f 64/80/64 72/79/72 81/89/81 73/90/73
f 74/82/74 73/81/73 82/91/82 83/92/83
f 75/83/75 74/82/74 83/92/83 84/93/84
f 76/84/76 75/83/75 84/93/84 85/94/85
f 78/86/78 77/85/77 86/95/86 87/96/87
f 79/87/79 78/86/78 87/96/87 88/97/88
f 80/88/80 79/87/79 88/97/88 89/98/89
f 81/89/81 80/88/80 89/98/89 90/99/90
f 73/90/73 81/89/81 90/99/90 82/100/82
f 83/92/83 82/91/82 91/101/91 92/102/92
f 84/93/84 83/92/83 92/102/92 93/103/93
f 85/94/85 84/93/84 93/103/93 94/104/94
f 87/96/87 86/95/86 95/105/95 96/106/96
f 88/97/88 87/96/87 96/106/96 97/107/97
f 89/98/89 88/97/88 97/107/97 98/108/98
f 90/99/90 89/98/89 98/108/98 99/109/99
f 82/100/82 90/99/90 99/109/99 91/110/91
f 92/102/92 91/101/91 100/111/100 101/112/101
f 93/103/93 92/102/92 101/112/101 102/113/102
f 94/104/94 93/103/93 102/113/102 103/114/103
f 96/106/96 95/105/95 104/115/104 105/116/105
f 97/107/97 96/106/96 105/116/105 106/117/106
f 98/108/98 97/107/97 106/117/106 107/118/107
f 99/109/99 98/108/98 107/118/107 108/119/108
f 91/110/91 99/109/99 108/119/108 100/120/100
f 101/112/101 100/111/100 109/121/109 110/122/110
f 102/113/102 101/112/101 110/122/110 111/123/111
f 103/114/103 102/113/102 111/123/111 112/124/112
f 105/116/105 104/115/104 113/125/113 114/126/114
f 106/117/106 105/116/105 114/126/114 115/127/115
f 107/118/107 106/117/106 115/127/115 116/128/116
f 108/119/108 107/118/107 116/128/116 117/129/117
f 100/120/100 108/119/108 117/129/117 109/130/109
f 110/122/110 109/121/109 118/131/118 119/132/119
f 111/123/111 110/122/110 119/132/119 120/133/120
f 112/124/112 111/123/111 120/133/120 121/134/121
f 114/126/114 113/125/113 122/135/122 123/136/123
f 115/127/115 114/126/114 123/136/123 124/137/124
f 116/128/116 115/127/115 124/137/124 125/138/125
f 117/129/117 116/128/116 125/138/125 126/139/126
f 109/130/109 117/129/117 126/139/126 118/140/118
f 119/132/119 118/131/118 127/141/127 128/142/128
f 120/133/120 119/132/119 128/142/128 129/143/129
f 121/134/121 120/133/120 129/143/129 130/144/130
f 123/136/123 122/135/122 131/145/131 132/146/132
f 124/137/124 123/136/123 132/146/132 133/147/133
f 125/138/125 124/137/124 133/147/133 134/148/134
f 126/139/126 125/138/125 134/148/134 135/149/135
f 118/140/118 126/139/126 135/149/135 127/150/127
f 128/142/128 127/141/127 136/151/136 137/152/137
f 129/143/129 128/142/128 137/152/137 138/153/138
f 130/144/130 129/143/129 138/153/138 139/154/139
f 132/146/132 131/145/131 140/155/140 141/156/141
f 133/147/133 132/146/132 141/156/141 142/157/142
f 134/148/134 133/147/133 142/157/142 143/158/143
f 135/149/135 134/148/134 143/158/143 144/159/144
f 127/150/127 135/149/135 144/159/144 136/160/136
f 137/152/137 136/151/136 145/161/145 146/162/146
f 138/153/138 137/152/137 146/162/146 147/163/147
f 139/154/139 138/153/138 147/163/147 148/164/148
f 141/156/141 140/155/140 149/165/149 150/166/150
f 142/157/142 141/156/141 150/166/150 151/167/151
f 143/158/143 142/157/142 151/167/151 152/168/152
f 144/159/144 143/158/143 152/168/152 153/169/153
f 136/160/136 144/159/144 153/169/153 145/170/145
f 146/162/146 145/161/145 154/171/154 155/172/155
f 147/163/147 146/162/146 155/172/155 156/173/156
f 148/164/148 147/163/147 156/173/156 157/174/157
f 150/166/150 149/165/149 158/175/158 159/176/159
f 151/167/151 150/166/150 159/176/159 160/177/160
f 152/168/152 151/167/151 160/177/160 161/178/161
f 153/169/153 152/168/152 161/178/161 162/179/162
f 145/170/145 153/169/153 162/179/162 154/180/154
f 155/172/155 154/171/154 163/181/163 164/182/164
f 156/173/156 155/172/155 164/182/164 165/183/165
f 157/174/157 156/173/156 165/183/165 166/184/166
f 159/176/159 158/175/158 167/185/167 168/186/168
f 160/177/160 159/176/159 168/186/168 169/187/169
f 161/178/161 160/177/160 169/187/169 170/188/170
f 162/179/162 161/178/161 170/188/170 171/189/171
f 154/180/154 162/179/162 171/189/171 163/190/163
f 164/182/164 163/181/163 172/191/172 173/192/173
f 165/183/165 164/182/164 173/192/173 174/193/174
f 166/184/166 165/183/165 174/193/174 175/194/175
f 168/186/168 167/185/167 176/195/176 177/196/177
f 169/187/169 168/186/168 177/196/177 178/197/178
f 170/188/170 169/187/169 178/197/178 179/198/179
f 171/189/171 170/188/170 179/198/179 180/199/180
f 163/190/163 171/189/171 180/199/180 172/200/172
f 173/192/173 172/191/172 1/201/2 2/202/1
f 174/193/174 173/192/173 2/202/1 3/203/5
f 175/194/175 174/193/174 3/203/5 4/204/7
f 177/196/177 176/195/176 5/205/10 6/206/9
f 178/197/178 177/196/177 6/206/9 7/207/13
f 179/198/179 178/197/178 7/207/13 8/208/15
f 180/199/180 179/198/179 8/208/15 9/209/17
f 172/200/172 180/199/180 9/209/17 1/210/2
s off
f 14/15/181 5/205/182 176/195/183 167/185/184 158/175/185 149/165/186 140/155/187 131/145/188 122/135/189 113/125/190 104/115/191 95/105/192 86/95/193 77/85/194 68/75/195 59/65/196 50/55/197 41/45/198 32/35/199 23/25/200
f 13/14/201 22/24/202 31/34/203 40/44/204 49/54/205 58/64/206 67/74/207 76/84/208 85/94/209 94/104/210 103/114/211 112/124/212 121/134/213 130/144/214 139/154/215 148/164/216 157/174/217 166/184/218 175/194/219 4/4/220
