# This file uses centimeters as units for non-parametric coordinates.

mtllib Mirror.mtl
g default
v -0.975830 3.159443 0.814344
v 1.009936 3.159443 0.814344
v -0.975830 5.401839 0.814344
v 1.009936 5.401839 0.814344
v -0.975830 5.401839 0.646534
v 1.009936 5.401839 0.646534
v -0.975830 3.159443 0.646534
v 1.009936 3.159443 0.646534
v -0.868100 5.332770 0.646534
v 0.902205 5.332770 0.646534
v 0.902205 3.228511 0.646534
v -0.868100 3.228511 0.646534
v -0.868100 5.332770 0.706172
v 0.902205 5.332770 0.706172
v 0.902205 3.228511 0.706172
v -0.868100 3.228511 0.706172
vt 0.526493 0.000000
vt 0.776493 0.000000
vt 0.526493 0.250000
vt 0.776493 0.250000
vt 0.244489 0.913085
vt 0.244489 0.688939
vt 0.273673 0.688939
vt 0.273673 0.913085
vt 0.273673 0.240647
vt 0.273673 0.464793
vt 0.244489 0.464793
vt 0.244489 0.240647
vt 0.084666 0.915005
vt 0.084520 0.692131
vt 0.289788 0.265664
vt 0.525048 0.265664
vt 0.173367 0.692073
vt 0.173513 0.914947
vt 0.749014 0.790063
vt 0.520689 0.790063
vt 0.520689 0.518666
vt 0.749014 0.518666
vt 0.512285 0.257481
vt 0.084366 0.457532
vt 0.302552 0.257481
vt 0.173213 0.457473
vt 0.084220 0.234657
vt 0.173067 0.234599
vt 0.244489 0.016501
vt 0.273673 0.016501
vt 0.302552 0.008183
vt 0.289788 0.000000
vt 0.525048 0.000000
vt 0.512285 0.008183
vt 0.084066 0.000058
vt 0.172913 0.000000
vn 0.000000 0.000000 1.000000
vn 0.000000 0.000000 1.000000
vn 0.000000 0.000000 1.000000
vn 0.000000 0.000000 1.000000
vn 0.000000 1.000000 0.000000
vn 0.000000 1.000000 0.000000
vn 0.000000 1.000000 0.000000
vn 0.000000 1.000000 0.000000
vn 0.000000 0.000000 -1.000000
vn 0.000000 0.000000 -1.000000
vn 0.000000 0.000000 -1.000000
vn 0.000000 0.000000 -1.000000
vn 0.000000 -1.000000 0.000000
vn 0.000000 -1.000000 0.000000
vn 0.000000 -1.000000 0.000000
vn 0.000000 -1.000000 0.000000
vn 1.000000 0.000000 0.000000
vn 1.000000 0.000000 0.000000
vn 1.000000 0.000000 0.000000
vn 1.000000 0.000000 0.000000
vn -1.000000 0.000000 0.000000
vn -1.000000 0.000000 0.000000
vn -1.000000 0.000000 0.000000
vn -1.000000 0.000000 0.000000
vn 0.000000 0.000000 -1.000000
vn 0.000000 0.000000 -1.000000
vn 0.000000 0.000000 -1.000000
vn 0.000000 0.000000 -1.000000
vn 0.000000 0.000000 -1.000000
vn 0.000000 0.000000 -1.000000
vn 0.000000 0.000000 -1.000000
vn 0.000000 0.000000 -1.000000
vn 0.000000 0.000000 -1.000000
vn 0.000000 0.000000 -1.000000
vn 0.000000 0.000000 -1.000000
vn 0.000000 0.000000 -1.000000
vn 0.000000 0.000000 -1.000000
vn 0.000000 0.000000 -1.000000
vn 0.000000 0.000000 -1.000000
vn 0.000000 0.000000 -1.000000
vn 0.000000 -1.000000 0.000000
vn 0.000000 -1.000000 0.000000
vn 0.000000 -1.000000 0.000000
vn 0.000000 -1.000000 0.000000
vn -1.000000 0.000000 0.000000
vn -1.000000 0.000000 0.000000
vn -1.000000 0.000000 0.000000
vn -1.000000 0.000000 0.000000
vn 0.000000 1.000000 0.000000
vn 0.000000 1.000000 0.000000
vn 0.000000 1.000000 0.000000
vn 0.000000 1.000000 0.000000
vn 1.000000 0.000000 0.000000
vn 1.000000 0.000000 0.000000
vn 1.000000 0.000000 0.000000
vn 1.000000 0.000000 0.000000
s off
g Mirror
usemtl initialShadingGroup
f 1/1/1 2/2/2 4/4/3 3/3/4
f 3/5/5 4/6/6 6/7/7 5/8/8
f 13/19/9 14/20/10 15/21/11 16/22/12
f 7/9/13 8/10/14 2/11/15 1/12/16
f 2/11/17 8/10/18 6/7/19 4/6/20
f 7/9/21 1/12/22 3/29/23 5/30/24
f 5/15/25 6/16/26 10/23/27 9/25/28
f 6/16/29 8/33/30 11/34/31 10/23/32
f 8/33/33 7/32/34 12/31/35 11/34/36
f 7/32/37 5/15/38 9/25/39 12/31/40
f 9/13/41 10/14/42 14/17/43 13/18/44
f 10/14/45 11/24/46 15/26/47 14/17/48
f 11/24/49 12/27/50 16/28/51 15/26/52
f 12/27/53 9/35/54 13/36/55 16/28/56
