# This file uses centimeters as units for non-parametric coordinates.

mtllib Box.mtl
g default
v -2.469948 -0.013782 1.599601
v 2.469948 -0.013782 1.599601
v -2.469948 2.604428 1.599601
v 2.469948 2.604428 1.599601
v -2.469948 2.604428 -1.599601
v 2.469948 2.604428 -1.599601
v -2.469948 -0.013782 -1.599601
v 2.469948 -0.013782 -1.599601
vt 0.339995 0.823178
vt 0.339995 0.501860
vt 0.602960 0.501860
vt 0.602960 0.823178
vt 0.071313 0.823178
vt 0.071313 0.501860
vt 0.334278 0.501860
vt 0.334278 0.823178
vt 0.270826 0.498140
vt 0.270826 0.001992
vt 0.592144 0.001992
vt 0.592144 0.498140
vt 0.608677 0.998008
vt 0.608677 0.501860
vt 0.929995 0.501860
vt 0.929995 0.998008
vt 0.001856 0.498140
vt 0.001856 0.001992
vt 0.264821 0.001992
vt 0.264821 0.498140
vt 0.599546 0.498140
vt 0.599546 0.001992
vt 0.862511 0.001992
vt 0.862511 0.498140
vn 0.000000 0.000000 1.000000
vn 0.000000 0.000000 1.000000
vn 0.000000 0.000000 1.000000
vn 0.000000 0.000000 1.000000
vn 0.000000 1.000000 0.000000
vn 0.000000 1.000000 0.000000
vn 0.000000 1.000000 0.000000
vn 0.000000 1.000000 0.000000
vn 0.000000 0.000000 -1.000000
vn 0.000000 0.000000 -1.000000
vn 0.000000 0.000000 -1.000000
vn 0.000000 0.000000 -1.000000
vn 0.000000 -1.000000 0.000000
vn 0.000000 -1.000000 0.000000
vn 0.000000 -1.000000 0.000000
vn 0.000000 -1.000000 0.000000
vn 1.000000 0.000000 0.000000
vn 1.000000 0.000000 0.000000
vn 1.000000 0.000000 0.000000
vn 1.000000 0.000000 0.000000
vn -1.000000 0.000000 0.000000
vn -1.000000 0.000000 0.000000
vn -1.000000 0.000000 0.000000
vn -1.000000 0.000000 0.000000
s off
g pCube1
usemtl initialShadingGroup
f 1/17/1 2/18/2 4/19/3 3/20/4
f 3/9/5 4/10/6 6/11/7 5/12/8
f 5/21/9 6/22/10 8/23/11 7/24/12
f 7/13/13 8/14/14 2/15/15 1/16/16
f 2/1/17 8/2/18 6/3/19 4/4/20
f 7/5/21 1/6/22 3/7/23 5/8/24
