# This file uses centimeters as units for non-parametric coordinates.

mtllib roof.mtl
g default
v -1.000000 2.825498 -1.673139
v -1.000000 3.057261 -1.591250
v -1.000000 3.266337 -1.353598
v -1.000000 3.432261 -0.983446
v -1.000000 3.538791 -0.517028
v -1.000000 3.575498 0.000000
v -1.000000 3.538791 0.517028
v -1.000000 3.432261 0.983446
v -1.000000 3.266337 1.353598
v -1.000000 3.057261 1.591250
v -1.000000 2.825498 1.673139
v -1.000000 2.825498 -2.230852
v -1.000000 3.134515 -2.121667
v -1.000000 3.413284 -1.804797
v -1.000000 3.634515 -1.311262
v -1.000000 3.776555 -0.689371
v -1.000000 3.825498 0.000000
v -1.000000 3.776555 0.689371
v -1.000000 3.634515 1.311262
v -1.000000 3.413283 1.804797
v -1.000000 3.134515 2.121666
v -1.000000 2.825498 2.230852
v 1.000000 2.825498 -2.230852
v 1.000000 3.134515 -2.121667
v 1.000000 3.413284 -1.804797
v 1.000000 3.634515 -1.311262
v 1.000000 3.776555 -0.689371
v 1.000000 3.825498 0.000000
v 1.000000 3.776555 0.689371
v 1.000000 3.634515 1.311262
v 1.000000 3.413283 1.804797
v 1.000000 3.134515 2.121666
v 1.000000 2.825498 2.230852
v 1.000000 2.825498 -1.673139
v 1.000000 3.057261 -1.591250
v 1.000000 3.266337 -1.353598
v 1.000000 3.432261 -0.983446
v 1.000000 3.538791 -0.517028
v 1.000000 3.575498 0.000000
v 1.000000 3.538791 0.517028
v 1.000000 3.432261 0.983446
v 1.000000 3.266337 1.353598
v 1.000000 3.057261 1.591250
v 1.000000 2.825498 1.673139
vt 0.301025 0.601270
vt 0.574218 0.591489
vt 0.574218 0.714806
vt 0.973279 0.714806
vt 0.973279 0.591489
vt 0.356476 0.020582
vt 0.356476 0.112948
vt 0.655381 0.112948
vt 0.655381 0.020582
vt 0.356476 0.196273
vt 0.655381 0.196273
vt 0.574218 0.826051
vt 0.857693 0.065647
vt 0.839588 0.157807
vt 0.956862 0.188527
vt 0.981003 0.065647
vt 0.787043 0.240945
vt 0.886803 0.299378
vt 0.705203 0.306925
vt 0.777683 0.387350
vt 0.602079 0.349286
vt 0.301025 0.601270
vt 0.973279 0.826051
vt 0.574218 0.914336
vt 0.973279 0.914336
vt 0.574218 0.971019
vt 0.973279 0.971019
vt 0.574218 0.990550
vt 0.973279 0.990550
vt 0.574218 0.971019
vt 0.973279 0.971019
vt 0.640184 0.443832
vt 0.574218 0.914336
vt 0.973279 0.914336
vt 0.574218 0.826051
vt 0.973279 0.826051
vt 0.574218 0.714806
vt 0.973279 0.714806
vt 0.574218 0.591489
vt 0.973279 0.591489
vt 0.449695 0.601270
vt 0.449695 0.601270
vt 0.487765 0.363882
vt 0.487765 0.463294
vt 0.373450 0.349286
vt 0.335346 0.443832
vt 0.270326 0.306925
vt 0.197846 0.387350
vt 0.188486 0.240945
vt 0.088726 0.299378
vt 0.135941 0.157807
vt 0.304920 0.570110
vt 0.356476 0.262401
vt 0.655381 0.262401
vt 0.356476 0.305942
vt 0.655381 0.305942
vt 0.649771 0.039809
vt 0.655381 0.320572
vt 0.649739 0.052607
vt 0.350838 0.051413
vt 0.649651 0.088621
vt 0.350750 0.087428
vt 0.649508 0.146470
vt 0.018667 0.188527
vt 0.117836 0.065647
vt 0.350607 0.145276
vt -0.005474 0.065647
vt 0.649329 0.219363
vt 0.981003 0.065647
vt 0.350428 0.218169
vt 0.956862 0.188527
vt 0.649130 0.300166
vt 0.839588 0.157807
vt 0.350229 0.298972
vt 0.857693 0.065647
vt 0.886803 0.299378
vt 0.787043 0.240945
vt 0.777683 0.387350
vt 0.705203 0.306925
vt 0.640184 0.443832
vt 0.602079 0.349286
vt 0.487765 0.463294
vt 0.487765 0.363882
vt 0.335346 0.443832
vt 0.373450 0.349286
vt 0.197846 0.387350
vt 0.270326 0.306925
vt 0.088726 0.299378
vt 0.188486 0.240945
vt 0.018667 0.188527
vt 0.135941 0.157807
vt -0.005474 0.065647
vt 0.117836 0.065647
vt 0.304920 0.570110
vt 0.453590 0.570110
vt 0.453590 0.570110
vt 0.649329 0.219363
vt 0.350428 0.218169
vt 0.649508 0.146470
vt 0.350607 0.145276
vt 0.649651 0.088621
vt 0.350750 0.087428
vt 0.649739 0.052607
vt 0.350838 0.051413
vt 0.356476 0.320572
vt 0.350870 0.038615
vn -1.000000 -0.000000 0.000000
vn -1.000000 -0.000000 0.000000
vn -1.000000 -0.000000 0.000000
vn -1.000000 -0.000000 0.000000
vn -1.000000 -0.000000 0.000000
vn -1.000000 -0.000000 0.000000
vn -1.000000 -0.000000 0.000000
vn -1.000000 -0.000000 0.000000
vn -1.000000 -0.000000 0.000000
vn -1.000000 -0.000000 0.000000
vn -1.000000 -0.000000 0.000000
vn -1.000000 -0.000000 0.000000
vn -1.000000 -0.000000 0.000000
vn -1.000000 -0.000000 0.000000
vn -1.000000 -0.000000 0.000000
vn -1.000000 -0.000000 0.000000
vn -1.000000 -0.000000 0.000000
vn -1.000000 -0.000000 0.000000
vn -1.000000 -0.000000 0.000000
vn -1.000000 -0.000000 0.000000
vn -1.000000 -0.000000 0.000000
vn -1.000000 -0.000000 0.000000
vn 0.000000 0.333148 -0.942875
vn 0.000000 0.586887 -0.809669
vn 0.000000 0.586887 -0.809669
vn 0.000000 0.333148 -0.942875
vn 0.000000 0.851053 -0.525079
vn 0.000000 0.851053 -0.525079
vn 0.000000 0.950844 -0.309670
vn 0.000000 0.950844 -0.309670
vn 0.000000 0.989559 -0.144128
vn 0.000000 0.989559 -0.144128
vn 0.000000 1.000000 0.000000
vn 0.000000 1.000000 0.000000
vn 0.000000 0.989559 0.144128
vn 0.000000 0.989559 0.144128
vn 0.000000 0.950844 0.309670
vn 0.000000 0.950844 0.309670
vn 0.000000 0.851053 0.525079
vn 0.000000 0.851053 0.525079
vn 0.000000 0.586887 0.809669
vn 0.000000 0.586887 0.809669
vn 0.000000 0.333147 0.942875
vn 0.000000 0.333147 0.942875
vn 1.000000 0.000000 0.000000
vn 1.000000 0.000000 0.000000
vn 1.000000 0.000000 0.000000
vn 1.000000 0.000000 0.000000
vn 1.000000 0.000000 0.000000
vn 1.000000 0.000000 0.000000
vn 1.000000 0.000000 0.000000
vn 1.000000 0.000000 0.000000
vn 1.000000 0.000000 0.000000
vn 1.000000 0.000000 0.000000
vn 1.000000 0.000000 0.000000
vn 1.000000 0.000000 0.000000
vn 1.000000 0.000000 0.000000
vn 1.000000 0.000000 0.000000
vn 1.000000 0.000000 0.000000
vn 1.000000 0.000000 0.000000
vn 1.000000 0.000000 0.000000
vn 1.000000 0.000000 0.000000
vn 1.000000 0.000000 0.000000
vn 1.000000 0.000000 0.000000
vn 1.000000 0.000000 0.000000
vn 1.000000 0.000000 0.000000
vn 0.000000 -1.000000 0.000000
vn 0.000000 -1.000000 0.000000
vn 0.000000 -1.000000 0.000000
vn 0.000000 -1.000000 0.000000
vn 0.000000 -0.333147 -0.942875
vn 0.000000 -0.333147 -0.942875
vn 0.000000 -0.333147 -0.942875
vn 0.000000 -0.333147 -0.942875
vn 0.000000 -0.750804 -0.660526
vn 0.000000 -0.750804 -0.660526
vn 0.000000 -0.750804 -0.660526
vn 0.000000 -0.750804 -0.660526
vn 0.000000 -0.912515 -0.409043
vn 0.000000 -0.912515 -0.409043
vn 0.000000 -0.912515 -0.409043
vn 0.000000 -0.912515 -0.409043
vn 0.000000 -0.974895 -0.222666
vn 0.000000 -0.974895 -0.222666
vn 0.000000 -0.974895 -0.222666
vn 0.000000 -0.974895 -0.222666
vn 0.000000 -0.997489 -0.070819
vn 0.000000 -0.997489 -0.070819
vn 0.000000 -0.997489 -0.070819
vn 0.000000 -0.997489 -0.070819
vn 0.000000 -0.997489 0.070819
vn 0.000000 -0.997489 0.070819
vn 0.000000 -0.997489 0.070819
vn 0.000000 -0.997489 0.070819
vn 0.000000 -0.974895 0.222666
vn 0.000000 -0.974895 0.222666
vn 0.000000 -0.974895 0.222666
vn 0.000000 -0.974895 0.222666
vn 0.000000 -0.912515 0.409043
vn 0.000000 -0.912515 0.409043
vn 0.000000 -0.912515 0.409043
vn 0.000000 -0.912515 0.409043
vn 0.000000 -0.750804 0.660525
vn 0.000000 -0.750804 0.660525
vn 0.000000 -0.750804 0.660525
vn 0.000000 -0.750804 0.660525
vn 0.000000 -0.333148 0.942875
vn 0.000000 -0.333148 0.942875
vn 0.000000 -0.333148 0.942875
vn 0.000000 -0.333148 0.942875
vn 0.000000 -1.000000 0.000000
vn 0.000000 -1.000000 0.000000
vn 0.000000 -1.000000 0.000000
vn 0.000000 -1.000000 0.000000
s 1
g pCylinder1
usemtl initialShadingGroup
f 1/13/1 2/14/2 13/15/3 12/16/4
f 2/14/2 3/17/5 14/18/6 13/15/3
f 3/17/5 4/19/7 15/20/8 14/18/6
f 4/19/7 5/21/9 16/32/10 15/20/8
f 5/21/9 6/43/11 17/44/12 16/32/10
f 6/43/11 7/45/13 18/46/14 17/44/12
f 7/45/13 8/47/15 19/48/16 18/46/14
f 8/47/15 9/49/17 20/50/18 19/48/16
f 9/49/17 10/51/19 21/64/20 20/50/18
f 10/51/19 11/65/21 22/67/22 21/64/20
s 2
f 12/2/23 13/3/24 24/4/25 23/5/26
f 13/3/24 14/12/27 25/23/28 24/4/25
f 14/12/27 15/24/29 26/25/30 25/23/28
f 15/24/29 16/26/31 27/27/32 26/25/30
f 16/26/31 17/28/33 28/29/34 27/27/32
f 17/28/33 18/30/35 29/31/36 28/29/34
f 18/30/35 19/33/37 30/34/38 29/31/36
f 19/33/37 20/35/39 31/36/40 30/34/38
f 20/35/39 21/37/41 32/38/42 31/36/40
f 21/37/41 22/39/43 33/40/44 32/38/42
s 3
f 23/69/45 24/71/46 35/73/47 34/75/48
f 24/71/46 25/76/49 36/77/50 35/73/47
f 25/76/49 26/78/51 37/79/52 36/77/50
f 26/78/51 27/80/53 38/81/54 37/79/52
f 27/80/53 28/82/55 39/83/56 38/81/54
f 28/82/55 29/84/57 40/85/58 39/83/56
f 29/84/57 30/86/59 41/87/60 40/85/58
f 30/86/59 31/88/61 42/89/62 41/87/60
f 31/88/61 32/90/63 43/91/64 42/89/62
f 32/90/63 33/92/65 44/93/66 43/91/64
s off
f 22/1/67 11/22/68 44/41/69 33/42/70
f 11/6/71 10/7/72 43/8/73 44/9/74
f 10/7/75 9/10/76 42/11/77 43/8/78
f 9/10/79 8/53/80 41/54/81 42/11/82
f 8/53/83 7/55/84 40/56/85 41/54/86
f 7/55/87 6/105/88 39/58/89 40/56/90
f 6/57/91 5/103/92 38/60/93 39/106/94
f 5/59/95 4/101/96 37/62/97 38/104/98
f 4/61/99 3/99/100 36/66/101 37/102/102
f 3/63/103 2/97/104 35/70/105 36/100/106
f 2/68/107 1/72/108 34/74/109 35/98/110
f 1/52/111 12/94/112 23/95/113 34/96/114
